<svg version="1.1" xmlns="http://www.w3.org/2000/svg" xmlns:xlink="http://www.w3.org/1999/xlink" x="0px" y="0px" width="55.6px" height="42.5px" viewBox="0 0 55.6 42.5" style="overflow:visible;enable-background:new 0 0 55.6 42.5;" xml:space="preserve">
    <style type="text/css">
	.iz-svg-inner{fill-rule:evenodd;clip-rule:evenodd;fill:gray;}
	.iz-svg-outline{fill-rule:evenodd;clip-rule:evenodd;fill:black;}
</style>
    <defs>
</defs>
    <g>
        <path class="iz-svg-inner" d="M33.5,8.4c6.7,0.2,12.9,2,17.8,7c5.1,5.3,5.7,11.9,1.7,18c-0.7,1-0.8,1.9-0.3,2.9c0.7,1.4,1.6,2.9,2.4,4.3
		c0.2,0.4,0.3,0.9,0.4,1.3c-0.5,0.1-0.9,0.3-1.4,0.3c-2.3-0.3-4.5-0.8-6.5-1.9c-1.2-0.7-2.1-0.5-3.4-0.1C34.5,43.8,25.3,43.4,17,37
		c-4.4-3.4-6.6-8-5.7-13.7c0.6-3.9,2.8-7,5.9-9.5c3.8-3.1,8.2-4.7,13.1-5.2C31.2,8.5,32.3,8.5,33.5,8.4L33.5,8.4z M38.8,28.8
		c-0.3,0.5-0.4,0.8-0.6,1.1c-0.5,1.1-0.3,2.1,0.5,2.7c0.8,0.5,1.8,0.4,2.6-0.5c2.3-2.8,3.6-5.9,3.3-9.5c-0.3-3.7-4.5-5.9-7.7-4.2
		c-2,1-3,2.6-3,4.9c0,2.3,1.2,3.8,3.1,4.9C37.5,28.3,38.1,28.5,38.8,28.8L38.8,28.8z M32.8,24.2c0-0.6,0-0.9,0-1.2
		c0-3-2.3-4.9-4.5-5.2c-2.7-0.4-5.1,1.1-6,3.6c-1,2.8,0.4,5.6,3.3,6.8c1.3,0.5,1.3,0.5,0.7,1.7C26,30.7,26,31.4,26.5,32
		c0.8,1.1,2,1.1,3,0C31.6,29.7,32.7,27,32.8,24.2L32.8,24.2z"></path>
        <path class="iz-svg-outline" d="M14.8,0c4.3,0,8.1,1.1,11.4,3.8c0.7,0.5,1.2,1.2,1.7,1.8c0.5,0.7,0.6,1.4-0.1,2c-0.7,0.6-1.4,0.3-1.9-0.3
		c-1.6-1.8-3.4-3.1-5.7-3.8C14.9,1.8,10,2.3,5.6,5.8c-1.8,1.5-2.9,3.4-2.9,5.9c0,1.4,0.5,2.7,1.3,3.8c0.7,0.9,0.9,1.8,0.7,2.9
		c-0.2,1.1,0.1,1.4,1,0.8c1.6-1,2.8,0,4,0.7c0.6,0.3,0.8,0.9,0.5,1.6c-0.3,0.7-1,0.9-1.6,0.6c-1.2-0.7-2.1-0.2-3.2,0.2
		C4.3,22.6,3,22.9,1.8,23c-0.5,0.1-1.3-0.3-1.6-0.7c-0.2-0.3,0.1-1,0.2-1.5c0-0.1,0.1-0.3,0.3-0.4c1.3-1.5,1.5-2.9,0.4-4.8
		c-2.2-3.8-0.9-8.6,2.7-11.7C7.1,1.1,10.8,0,14.8,0L14.8,0z"></path>
    </g>
</svg>