<svg version="1.1" xmlns="http://www.w3.org/2000/svg" xmlns:xlink="http://www.w3.org/1999/xlink" x="0px" y="0px" width="55.8px" height="42.5px" viewBox="0 0 55.8 42.5" style="overflow:visible;enable-background:new 0 0 55.8 42.5;" xml:space="preserve">
	<style type="text/css">
	.iz-svg-outline{fill-rule:evenodd;clip-rule:evenodd;fill:black;}
</style>
	<defs>
</defs>
	<path class="iz-svg-outline" d="M51.8,37.2c0,0.7-0.6,1.3-1.3,1.3H5.2c-0.7,0-1.3-0.6-1.3-1.3V11.8c0-0.7,0.6-1.3,1.3-1.3h12.6
	c0,1.8,1.5,3.3,3.3,3.3h13.4c1.9,0,3.3-1.5,3.3-3.3l0,0h12.6c0.7,0,1.3,0.6,1.3,1.3L51.8,37.2L51.8,37.2L51.8,37.2z M50.5,6.6H38
	V6.4c0-1.8-1.4-3.3-3.3-3.3h-2.3C32.3,1.4,30.9,0,29.1,0h-2.3c-1.8,0-3.2,1.4-3.3,3.2h-2.4c-1.8,0-3.3,1.4-3.3,3.3v0.1H5.3
	C2.3,6.6,0,8.9,0,11.8v25.4c0,2.9,2.3,5.3,5.3,5.3h45.3c2.9,0,5.3-2.3,5.3-5.3V11.8C55.8,8.9,53.5,6.6,50.5,6.6L50.5,6.6L50.5,6.6
	L50.5,6.6z M42.7,20.7H29.2c-0.5,0-1,0.4-1,0.8c0,0.4,0.4,0.8,1,0.8h13.5c0.5,0,1-0.3,1-0.8C43.7,21,43.3,20.7,42.7,20.7L42.7,20.7
	L42.7,20.7L42.7,20.7z M42.7,24.5H29.2c-0.5,0-1,0.3-1,0.8c0,0.4,0.4,0.8,1,0.8h13.5c0.5,0,1-0.4,1-0.8
	C43.7,24.8,43.3,24.5,42.7,24.5L42.7,24.5L42.7,24.5L42.7,24.5z M16.7,25.5v0.9c3.6,2.1,5.4,1,5.4,5.7h-7.3h-0.1H7.3
	c0-4.9,1.9-3.6,5.4-5.7v-0.8c-0.6-0.4-0.8-1.2-1-2.1l0,0c-0.1,0-0.2-0.1-0.2-0.3v0c-0.1-0.1-0.1-0.3-0.2-0.4c-0.1-0.2-0.3-0.8-0.1-1
	c0.2-0.1,0.3,0,0.3,0c-0.3-1.4-0.6-3.2,1.3-3.7c0-1.2,4.5-0.7,5,1.2c0.2,0.7-0.1,2.5-0.1,2.5c0-0.1,0.1-0.1,0.2,0
	c0.2,0.2,0,0.8-0.1,1.1c0,0.2-0.1,0.4-0.2,0.5l0,0c0,0.2-0.1,0.3-0.1,0.3C17.5,24.3,17.2,25.1,16.7,25.5L16.7,25.5L16.7,25.5
	L16.7,25.5z"></path>
</svg>