<svg version="1.1" xmlns="http://www.w3.org/2000/svg" xmlns:xlink="http://www.w3.org/1999/xlink" x="0px" y="0px" width="45px" height="45px" viewBox="0 0 49.4 49.3" style="overflow:visible;enable-background:new 0 0 49.4 49.3;" xml:space="preserve">
    <style type="text/css">
	.iz-svg-inner{fill-rule:evenodd;clip-rule:evenodd;fill:gray;}
	.iz-svg-outline{fill-rule:evenodd;clip-rule:evenodd;fill:black;}
</style>
    <defs>
</defs>
    <path class="iz-svg-inner" d="M43,13.7V6.9h-6.8v6.7h-6.7V6.8h-6.9v6.8h-6.8V6.8H9.1v6.8h6.8v6.8H9.1v6.8h6.8v-6.8h6.8v6.8h6.8v-6.8h6.7v6.8
	h6.8v-6.8h-6.8v-6.7H43L43,13.7L43,13.7z M22.7,20.4v-6.8h6.8v6.8H22.7L22.7,20.4L22.7,20.4z"></path>
    <polygon class="iz-svg-inner" points="15.9,34 9.1,34 9.1,40.9 16,40.9 16,34.2 22.7,34.2 22.7,27.4 15.9,27.4 15.9,34 "></polygon>
    <polygon class="iz-svg-inner" points="36.3,27.4 29.5,27.4 29.5,34 22.7,34 22.7,40.9 29.5,40.9 29.5,34.2 36.2,34.2 36.2,40.9 43,40.9
	43,34 36.3,34 36.3,27.4 "></polygon>
    <path class="iz-svg-outline" d="M48.7,45.3l-4.7-2c-0.3-0.1-0.7-0.1-1,0.1c-0.3,0.2-0.5,0.5-0.5,0.9v0.6H4.4V6.8H5c0.3,0,0.7-0.2,0.9-0.5
	C6.1,6,6.1,5.6,6,5.3L4,0.6C3.8,0.2,3.4,0,3,0C2.6,0,2.2,0.2,2.1,0.6l-2,4.7C0,5.6,0,6,0.2,6.3c0.2,0.3,0.5,0.5,0.9,0.5h0.6v39.4
	c0,0.8,0.6,1.4,1.4,1.4h39.6v0.6c0,0.3,0.2,0.7,0.5,0.9c0.2,0.1,0.4,0.2,0.6,0.2c0.1,0,0.3,0,0.4-0.1l4.7-2c0.4-0.2,0.6-0.5,0.6-1
	C49.3,45.9,49.1,45.5,48.7,45.3L48.7,45.3z"></path>
</svg>