<svg version="1.1" xmlns="http://www.w3.org/2000/svg" xmlns:xlink="http://www.w3.org/1999/xlink" x="0px" y="0px" width="29.8px" height="42.6px" viewBox="0 0 29.8 42.6" style="overflow:visible;enable-background:new 0 0 29.8 42.6;" xml:space="preserve">
    <style type="text/css">
	.iz-svg-outline{fill-rule:evenodd;clip-rule:evenodd;fill:black;}
</style>
    <defs>
</defs>
    <path class="iz-svg-outline" d="M15.4,30.5v10.4c0,0.5-0.2,0.8-0.3,1.2c-0.3,0.3-0.7,0.5-1.2,0.5c-0.3,0-0.8-0.2-1-0.5
	c-0.3-0.3-0.5-0.7-0.5-1.2V30.5V30h0.5h2h0.5L15.4,30.5L15.4,30.5L15.4,30.5z M15.4,16.4V20v0.5h-0.5h-2h-0.5V20v-3.5v-0.5h0.5h2
	h0.5V16.4L15.4,16.4L15.4,16.4z M6.7,10.1L1.3,4.9l0,0h23.1l0,0l5.3,5.2l0,0l0,0l-5.3,5.4H1.5H1.3h0.2L6.7,10.1L6.7,10.1L6.7,10.1z
	 M4.2,20.9h9.7h10.4l0,0l0,0l-4.2,4.4l4.2,4v0.2H13.9H4.2l0,0l0,0L0,25.3l0,0v-0.2L4.2,20.9L4.2,20.9L4.2,20.9L4.2,20.9z M12.4,1.7
	c0-0.3,0.2-0.8,0.5-1C13,0.2,13.6,0,13.9,0c0.5,0,0.8,0.2,1.2,0.7c0.2,0.2,0.3,0.7,0.3,1v2.2v0.3h-0.5h-2h-0.5V3.9L12.4,1.7
	L12.4,1.7L12.4,1.7z"></path>
</svg>