<svg version="1.1" xmlns="http://www.w3.org/2000/svg" xmlns:xlink="http://www.w3.org/1999/xlink" x="0px" y="0px" width="45px" height="45px" viewBox="0 0 48.7 42.5" style="overflow:visible;enable-background:new 0 0 48.7 42.5;" xml:space="preserve">
    <style type="text/css">
	.iz-svg-outline{fill-rule:evenodd;clip-rule:evenodd;fill:black;}
</style>
    <defs>
</defs>
    <path class="iz-svg-outline" d="M2.4,36h16c0.2,1.1,1.3,1.9,2.4,1.9h6.9c1.1,0,2.2-0.8,2.4-1.9h16c1.8,0,2.4,0.6,2.4,2.4v0.8
	c0,1.8-1.5,3.3-3.3,3.3H3.3C1.5,42.5,0,41,0,39.2v-0.8C0,36.5,0.6,36,2.4,36L2.4,36z M21.3,13.1c0.7,0,1.4,0.3,2,0.9
	c0,0,0.7,0.6,1,0.6c0.3,0,1-0.6,1-0.6c1.1-1.1,2.9-1.1,4,0c1.1,1.1,1.1,2.9,0,4l-4,4c0,0-0.5,0.5-0.9,0.5c-0.5,0-1-0.5-1-0.5l-4.1-4
	c-1.1-1.1-1.1-2.9,0-4C19.9,13.4,20.6,13.1,21.3,13.1L21.3,13.1z M24.4,7.8c-5,0-9.1,4.1-9.1,9.1c0,5,4.1,9.1,9.1,9.1
	s9.1-4.1,9.1-9.1C33.5,11.9,29.4,7.8,24.4,7.8L24.4,7.8z M6.1,3.8h36.8c0.9,0,1.8,1.1,1.9,2.1v5.7v8.8v7.5c0,0.9-0.6,2.1-1.4,2.1
	H6.1c-0.9,0-2.1-1.1-2.1-2.1v-8.7v-5.5V5.8C4,4.9,5.1,3.8,6.1,3.8L6.1,3.8z M6.1,2.2c-1.8,0-3.8,1.9-3.8,3.8v7.9v5.5V28
	c0,1.8,1.9,3.8,3.8,3.8h37.3c1.9,0,3.1-1.9,3.1-3.8v-7.5v-8.8V5.9c0-1.8-1-3.8-3-3.8H6.1z M6.1,0h37.4c3.1,0,5.3,2.9,5.3,5.9v5.7
	v8.8v10.4c0,3.1-0.1,3.7-3.2,3.7H4.1c-3.1,0-4-0.6-4-3.7V19.3v-5.5V5.9C0.1,2.9,3,0,6.1,0L6.1,0z"></path>
</svg>