<svg version="1.1" xmlns="http://www.w3.org/2000/svg" xmlns:xlink="http://www.w3.org/1999/xlink" x="0px" y="0px" width="40.8px" height="42.6px" viewBox="0 0 40.8 42.6" style="overflow:visible;enable-background:new 0 0 40.8 42.6;" xml:space="preserve">
    <style type="text/css">
	.iz-svg-inner{fill-rule:evenodd;clip-rule:evenodd;fill:gray;}
	.iz-svg-outline{fill-rule:evenodd;clip-rule:evenodd;fill:black;}
</style>
    <defs>
</defs>
    <path class="iz-svg-outline" d="M28.8,42.6c-2.9,0-6-1.2-8.2-3.5L3.3,20.4C-1.1,16-1.1,8.6,3.3,3.9l2.7-2.7C6.8,0.4,7.8,0,8.8,0l0,0
	c1,0,1.9,0.4,2.7,1.2l2.7,2.7c3.1,3.1,3.1,8,0,11.1l0,0l11.8,13c3.1-2.9,8-2.9,10.9,0l2.7,2.7c0.8,0.8,1.2,1.8,1.2,2.7
	s-0.4,1.9-1.2,2.7l-2.7,2.7C34.6,41.4,31.7,42.6,28.8,42.6L28.8,42.6z M8.8,4.1L6.1,6.8c-3.1,3.1-3.1,8,0,11.1l17.3,18.7
	c2.9,2.9,8,2.9,10.9,0l2.7-2.7l-2.7-2.7c-1.6-1.6-4.1-1.6-5.4,0l-1.4,1.4c-0.4,0.4-1,0.6-1.4,0.6c-0.6,0-1-0.2-1.4-0.6l-14.4-16
	c-0.8-0.8-0.6-1.9,0-2.7l1.4-1.4c1.6-1.6,1.6-3.9,0-5.4L8.8,4.1L8.8,4.1L8.8,4.1z"></path>
    <path class="iz-svg-inner" d="M31.2,21c-1.2,0-1.9-0.8-1.9-1.9c0-2.7-2.1-4.9-4.9-4.9c-1.2,0-1.9-0.8-1.9-1.9s0.8-1.9,1.9-1.9
	c4.9,0,8.7,3.9,8.7,8.7C33.1,20.2,32.3,21,31.2,21L31.2,21z"></path>
    <path class="iz-svg-inner" d="M38.9,21c-1.2,0-1.9-0.8-1.9-1.9c0-7-5.6-12.6-12.6-12.6c-1.2,0-1.9-0.8-1.9-1.9s0.8-1.9,1.9-1.9
	c9.1,0,16.4,7.4,16.4,16.5C40.8,20.2,40,21,38.9,21L38.9,21z"></path>
</svg>