<svg version="1.1" xmlns="http://www.w3.org/2000/svg" xmlns:xlink="http://www.w3.org/1999/xlink" x="0px" y="0px" width="49.1px" height="42.5px" viewBox="0 0 49.1 42.5" style="overflow:visible;enable-background:new 0 0 49.1 42.5;" xml:space="preserve">
    <style type="text/css">
	.iz-svg-outline{fill-rule:evenodd;clip-rule:evenodd;fill:black;}
</style>
    <defs>
</defs>
    <path class="iz-svg-outline" d="M24.5,42.5c-0.6,0-1.2-0.3-1.8-0.6C22,41.6,9.5,32.1,4.9,26c-4-5.2-5.5-11-4.6-15.9c0.9-4,3.4-6.7,7.4-8.6
	c5.8-2.8,12.3-1.5,16.9,2.8c4.6-4,11-5.2,16.9-2.8c4,1.8,6.4,4.9,7.4,8.6c1.2,4.9-0.6,11-4.6,15.9c-4.9,6.1-17.2,15.6-17.8,15.9
	C25.7,42.2,25.1,42.5,24.5,42.5L24.5,42.5z M14.1,5.8c-1.2,0-2.5,0.3-3.7,0.9c-2.1,0.9-3.4,2.4-4,4.6C5.8,14.3,7,18.6,9.8,22
	c3.4,4.3,11.3,10.7,14.7,13.5c3.7-2.8,11.7-9.2,14.7-13.5c2.8-3.7,4-8,3.4-10.7c-0.6-1.8-1.8-3.4-4-4.6l0,0c-4.6-2.1-9.5,0-11.7,3.4
	c-1.2,1.8-4,1.8-5.2,0C20.5,7.9,17.4,5.8,14.1,5.8L14.1,5.8z"></path>
</svg>