<svg version="1.1" xmlns="http://www.w3.org/2000/svg" xmlns:xlink="http://www.w3.org/1999/xlink" x="0px" y="0px" width="55.8px" height="42.5px" viewBox="0 0 55.8 42.5" style="overflow:visible;enable-background:new 0 0 55.8 42.5;" xml:space="preserve">
	<style type="text/css">
	.iz-svg-outline{fill-rule:evenodd;clip-rule:evenodd;fill:black;}
</style>
	<defs>
</defs>
	<path class="iz-svg-outline" d="M2.4,36h15.9c0.2,1.1,1.3,1.9,2.4,1.9h6.8c1.1,0,2.2-0.8,2.4-1.9h15.9c1.8,0,2.4,0.6,2.4,2.4v0.8
	c0,1.8-1.5,3.3-3.3,3.3H3.3C1.5,42.5,0,41,0,39.2v-0.8C0,36.6,0.6,36,2.4,36L2.4,36z M14.3,19.4c-0.9,0-1.6,0.7-1.6,1.6v4.2
	c0,0.9,0.7,1.6,1.6,1.6h2.8c0.9,0,1.6-0.7,1.6-1.6V21c0-0.9-0.7-1.6-1.6-1.6H14.3z M31.5,15.8c-0.9,0-1.6,0.7-1.6,1.6v7.7
	c0,0.9,0.7,1.6,1.6,1.6h2.8c0.9,0,1.6-0.7,1.6-1.6v-7.7c0-0.9-0.7-1.6-1.6-1.6H31.5z M23,10.5c-0.9,0-1.6,0.7-1.6,1.6v13.1
	c0,0.9,0.7,1.6,1.6,1.6h2.8c0.9,0,1.6-0.7,1.6-1.6V12.1c0-0.9-0.7-1.6-1.6-1.6H23z M6.1,3.9h36.6c0.8,0,1.8,1.1,1.9,2.1v5.7v8.8v7.5
	c0,0.9-0.6,2-1.4,2H6.1c-0.9,0-2-1.1-2-2v-8.7v-5.5V5.9C4.1,5,5.2,3.9,6.1,3.9L6.1,3.9z M6,2.3C4.2,2.3,2.3,4.1,2.3,6v7.9v5.5V28
	c0,1.8,1.9,3.8,3.8,3.8h37.2c1.9,0,3.1-1.9,3.1-3.8v-7.5v-8.8h-0.1V6c0-1.8-1-3.8-3-3.8H6z M6,0h37.2c3.1,0,5.2,3,5.2,5.9v5.7v8.8
	v10.4c0,3.1-0.1,3.6-3.2,3.6H4.1c-3.1,0-4-0.6-4-3.6V19.2v-5.5V5.9C0.1,2.8,3,0,6,0L6,0z"></path>
</svg>