<svg version="1.1" xmlns="http://www.w3.org/2000/svg" xmlns:xlink="http://www.w3.org/1999/xlink" x="0px" y="0px" width="45px" height="45px" viewBox="0 0 53.8 42.6" style="overflow:visible;enable-background:new 0 0 53.8 42.6;" xml:space="preserve">
    <style type="text/css">
	.iz-svg-outline{fill-rule:evenodd;clip-rule:evenodd;fill:black;}
</style>
    <defs>
</defs>
    <path class="iz-svg-outline" d="M30.7,6.1c-1.2-1-2.8-1.7-4.4-1.7c-1.7,0-3.2,0.7-4.4,1.7c-1.1,1.1-1.7,2.8-1.7,4.5c0,1.5,0.6,3.2,1.7,4.2
	c1.2,1.1,2.7,1.7,4.4,1.7c1.7,0,3.2-0.7,4.4-1.7c1.1-1,1.7-2.7,1.7-4.2C32.4,8.9,31.8,7.2,30.7,6.1L30.7,6.1L30.7,6.1L30.7,6.1z
	 M44.9,28l-14.6,4.7l22.5,7.2l1,0.4l-0.4,1v0.2l-0.4,1.1l-1-0.4l-25.6-8.1L1.7,41.7l-1,0.4l-0.2-1l-0.2-0.2l-0.2-1l1.1-0.4l21.1-6.8
	L8.7,28.4l-1.1-0.2l0.4-1v-0.2l0.4-1.1l1,0.2l15.9,5.1L18.9,18h-0.2c-1.9-1.9-3.2-4.7-3.2-7.4c0-3,1.3-5.7,3.2-7.6
	c1.9-1.9,4.6-3,7.6-3c3,0,5.7,1,7.6,3c1.9,1.9,3.2,4.6,3.2,7.6c0,2.8-1.2,5.5-3.2,7.4h-0.2l-6.5,13.1l17.1-5.3l1-0.4l0.2,1l0.2,0.2
	l0.2,1.1L44.9,28L44.9,28L44.9,28z"></path>
</svg>