<svg version="1.1" xmlns="http://www.w3.org/2000/svg" xmlns:xlink="http://www.w3.org/1999/xlink" x="0px" y="0px" width="55.2px" height="42.5px" viewBox="0 0 55.2 42.5" style="overflow:visible;enable-background:new 0 0 55.2 42.5;" xml:space="preserve">
    <style type="text/css">
    .iz-svg-inner{fill-rule:evenodd;clip-rule:evenodd;fill:gray;}
	.iz-svg-outline{fill-rule:evenodd;clip-rule:evenodd;fill:black;}
</style>
    <defs>
</defs>
    <path class="iz-svg-outline" d="M44.6,42.5c-0.4,0-0.8-0.2-1.3-0.4l-7.9-5.9h-7.9c-4.7,0-8.5-3.8-8.5-8.5V17c0-4.7,3.8-8.5,8.5-8.5h19.1
	c4.7,0,8.5,3.8,8.5,8.5v10.6c0,4.2-3,7.6-7,8.3L46.5,41c-0.2,0.6-0.6,1.1-1.5,1.3C45,42.5,44.8,42.5,44.6,42.5L44.6,42.5z
	 M27.6,12.8c-2.3,0-4.2,1.9-4.2,4.2v10.6c0,2.3,1.9,4.2,4.2,4.2h8.5c0.4,0,0.8,0.2,1.3,0.4l6.2,4.7l1.3-3.6c0.2-0.8,1.1-1.5,1.9-1.5
	c2.3,0,4.2-1.9,4.2-4.2V17c0-2.3-1.9-4.2-4.2-4.2H27.6L27.6,12.8L27.6,12.8z"></path>
    <path class="iz-svg-outline" d="M12.8,36.1c-0.4,0-0.6,0-1.1-0.2c-0.6-0.4-1.1-1.1-1.1-1.9v-6.4H8.5c-4.7,0-8.5-3.8-8.5-8.5V8.5
	C0,3.8,3.8,0,8.5,0h23c2.3,0,4.7,1.1,6.4,2.8c0.9,0.8,0.6,2.1-0.2,3c-0.9,0.9-2.1,0.6-3-0.2C33.8,4.7,32.8,4,31.5,4h-23
	C6.2,4,4.3,5.9,4.3,8.3v10.6c0,2.3,1.9,4.2,4.3,4.2h4.3c1.3,0,2.1,0.8,2.1,2.1v4.9l0.6-0.2c1.1-0.6,2.3-0.2,3,0.8
	c0.6,1.1,0.2,2.3-0.9,3l-3.8,2.1C13.4,36.1,13.2,36.1,12.8,36.1L12.8,36.1z"></path>
    <path class="iz-svg-inner" d="M34,23.3c0,1.2-0.9,2.1-2.1,2.1c-1.2,0-2.1-0.9-2.1-2.1s0.9-2.1,2.1-2.1C33,21.2,34,22.2,34,23.3L34,23.3z"></path>
    <path class="iz-svg-inner" d="M40.3,23.3c0,1.2-0.9,2.1-2.1,2.1c-1.2,0-2.1-0.9-2.1-2.1s0.9-2.1,2.1-2.1C39.4,21.2,40.3,22.2,40.3,23.3
	L40.3,23.3z"></path>
    <path class="iz-svg-inner" d="M46.7,23.3c0,1.2-0.9,2.1-2.1,2.1c-1.2,0-2.1-0.9-2.1-2.1s0.9-2.1,2.1-2.1C45.7,21.2,46.7,22.2,46.7,23.3
	L46.7,23.3z"></path>
</svg>