<?xml version="1.0" encoding="UTF-8"?>
<svg xmlns="http://www.w3.org/2000/svg" viewBox="0 0 482.85 458.5">
  <defs>
    <style>
      .icon-circle {
        fill: #ef7d19;
      }

      .icon-outline {
        fill: #757575;
      }
    </style>
  </defs>
  <title>02_icon_homepage</title>

  <g id="icon-homepage-svg" data-name="Ebene 1">
    <path class="icon-circle"
      d="M438.28,115.28A228.21,228.21,0,0,1,468.71,229.5c0,126.61-102.64,229.25-229.25,229.25a229.26,229.26,0,0,1-205.75-128,69.89,69.89,0,0,0,19-7.9,209.37,209.37,0,0,0,187,115.13c115.66,0,209.41-93.76,209.41-209.41a208.51,208.51,0,0,0-23-95.44C431.28,128.17,434.93,121.74,438.28,115.28Z"
      transform="translate(0 -0.25)"></path>
    <path class="icon-circle"
      d="M403.09,69c-4.39,4.79-8.51,10.13-10.77,16.14a208.85,208.85,0,0,0-152.58-66c-107.65,0-196.34,81.25-208.08,185.77-9.86,7.22-14.43,20.29-21.36,30.83q-.09-3.09-.09-6.21C10.21,102.89,112.85.25,239.46.25A228.52,228.52,0,0,1,403.09,69Z"
      transform="translate(0 -0.25)"></path>
    <path class="icon-outline"
      d="M257.05,309.35c-3.79,7.8-12,13.62-20.83,13.71-12.57.13-23.47-10.75-23.35-23.29.13-12.07,10.79-22.79,22.86-23,6-.09,11.94,2.75,16.32,7.12,4.57-5.48,9.07-11,11.95-17.78,2.41-5.73,3.93-11.69,6.06-17.5,1-2.82,3.17-5.78,4.23-8.83-20.94-58.42-73.43-92.35-134.38-86.35-33.44,3.29-61.81,18.14-86.45,40.17C25.75,218.41,6.83,248.76.6,285.81c-3.83,22.76,11,34.5,32.29,26.3,8.76-3.37,17-8.07,25.65-11.76,26.09-11.14,49.88-.27,57.83,26.93,2.61,8.93,3.67,18.43,4.54,27.75,3,32.56,20.76,50.82,49.26,50.55,4.36-.47,8.78-.62,13.06-1.48,52-10.34,88.75-51.7,97-100.42A156.42,156.42,0,0,1,257.05,309.35ZM44.14,280.59A16.45,16.45,0,0,1,29,264.29c.07-8.65,7.87-15.94,16.62-15.55,8.17.37,15.59,8.15,15.36,16.11C60.77,273.11,52.24,281.08,44.14,280.59Zm44.45-43.37c-10.89.15-20.26-9.29-20.24-20.39,0-10.37,9.16-19.87,19.5-20.28,10.58-.41,20.4,9.13,20.6,20A20.48,20.48,0,0,1,88.59,237.22Zm130.6-35.72c12.27.2,23.33,11.76,22.92,24-.39,12-11.46,22.64-23.38,22.49s-22.88-11.05-23-22.95C195.62,212.84,207.12,201.31,219.19,201.5Zm-66.25,18.69c-10.72,0-21.66-10.39-21.65-20.56,0-12,10.5-22.9,21.71-22.56a21.76,21.76,0,0,1,21.35,21.74A21.29,21.29,0,0,1,152.94,220.19ZM178.2,373.28c-14.54,1-24.15-13.95-24.78-23.73C152.65,337.6,166,324.29,178,324.28c12.31,0,24.25,11.74,24.58,24.18C203,361.79,191.73,373.21,178.2,373.28Z"
      transform="translate(0 -0.25)"></path>
    <path class="icon-outline"
      d="M482.85,26.88c-1.84,2.95-3.4,5.57-5.07,8.12Q429,109.75,380.11,184.48c-5.94,9.09-12.26,18-17.58,27.43-4,7.1-8.8,6.63-14.28,3-5.69-3.71-11-8-16.48-12-11.37-8.33-11.67-10.89-2.56-21.77q32.4-38.76,64.77-77.53c23-27.76,45.88-55.68,68.91-83.45,5.63-6.78,13.86-6.14,18.16,1.24C482,23.06,482.29,25.12,482.85,26.88Z"
      transform="translate(0 -0.25)"></path>
    <path class="icon-outline"
      d="M239.4,299.82,253,291c15.4-10,25.19-23.61,27.5-42.14.3-2.36.86-4.69,1.26-7,2-11.47,6.76-21.22,19.06-23.93,13.64-3,24.57,2.44,33.13,13.21,8,10,8.17,21.07,2.07,31.46a57.55,57.55,0,0,1-15.64,17.07C302,292.84,265.35,301.83,239.4,299.82Z"
      transform="translate(0 -0.25)"></path>
    <path class="icon-outline"
      d="M351.21,231.24c-4.66.37-8.78,2-10.93.62A293.45,293.45,0,0,1,314,212.47c-1.74-1.43-1.54-5.21-2.23-7.9,2.68-.63,6.32-2.69,7.91-1.65,9.63,6.37,18.87,13.35,28,20.39C349.08,224.32,349.32,226.73,351.21,231.24Z"
      transform="translate(0 -0.25)"></path>
  </g>
</svg>