<?xml version="1.0" encoding="UTF-8"?>
<svg xmlns="http://www.w3.org/2000/svg" viewBox="0 0 458.5 458.5">
  <defs>
    <style>
      .icon-circle {
        fill: #ef7d19;
      }

      .icon-outline {
        fill: #757575;
      }
    </style>
  </defs>
  <title>02_icon_druck</title>

  <g id="icon-druck-svg" data-name="Ebene 1">
    <path class="icon-circle"
      d="M454.33,184.53a229.72,229.72,0,0,1-35.87,174.8c.19-1.48.36-3,.58-4.43.78-5.1,1.83-10.16,2.83-15.23a239.1,239.1,0,0,0,3.54-28.33c.6-7.89,3.57-15.35,5.11-23A208.44,208.44,0,0,0,438,251.41a5.24,5.24,0,0,0,.7-1.33c1.24-3.38,1.61-7.12,2.39-10.63s1.9-6.72,3-10.07c2.31-7.25,3.6-15.2,4.7-22.73.54-3.68.55-7.44,1.44-11.07A68.91,68.91,0,0,1,454.33,184.53Z"
      transform="translate(-0.25 -0.25)"></path>
    <path class="icon-circle"
      d="M368.93,411.48c-3.57-1.53-7.17-3-10.85-4.36s-7.37-3.38-11-5.09a210.13,210.13,0,0,0,29.09-23.75c-.21,2.12-.57,4.17-.92,6.26a110.68,110.68,0,0,0-3.85,14.62c-.67,4.09-1.35,8.19-2.29,12.2Z"
      transform="translate(-0.25 -0.25)"></path>
    <path class="icon-circle"
      d="M328.39,432.77c1.39.55,2.79,1.05,4.19,1.54a229.35,229.35,0,0,1-270-47.73h.16c6.28.11,12.55.06,18.82.22,3.75.09,7.5.09,11.25.07a209.63,209.63,0,0,0,213.56,36.61,4.9,4.9,0,0,0,1.55.58c3,.62,6.09,2.58,9,3.68C320.82,429.22,324.49,431.24,328.39,432.77Z"
      transform="translate(-0.25 -0.25)"></path>
    <path class="icon-circle"
      d="M426.16,155.65A209.48,209.48,0,0,0,229.78,19.11c-115.65,0-209.41,93.76-209.41,209.41a208.45,208.45,0,0,0,29,106.37c-6.34,2.71-12.65,5.46-19.23,7.54l-.15.05A228.11,228.11,0,0,1,.25,229.5C.25,102.89,102.88.25,229.5.25c102.41,0,189.15,67.16,218.55,159.84l-.33,1.21-1.05-.27c-4.75-1.19-9.58-2.09-14.29-3.42C430.28,157,428.22,156.31,426.16,155.65Z"
      transform="translate(-0.25 -0.25)"></path>
    <path class="icon-outline"
      d="M7.77,366.69c53.9-35.87,162.12-80.44,307.63-66.56-1.24-10.72-2.5-21.2-3.64-31.68Q300.84,168.39,290.08,68.32c-.62-5.83-2.44-8.63-8.45-10.19-32.43-8.46-65.5-9.44-98.7-9.39-3.19,0-6.38,0-9.76-1.59,6.34-.9,12.66-2,19-2.68,32.55-3.55,65-4.76,97.37,2.3,8.72,1.9,13,5.57,14.31,14.93,7.29,53.76,15.28,107.42,22.84,161.15,3.75,26.71,7.1,53.48,10.59,80.23a66.39,66.39,0,0,1,.64,8.79c0,8.06-4.91,11.77-13,11.23-31.16-2.06-62.37-5.58-93.52-5.28-41.67.39-83.33,4.18-123.51,16.45-32.36,9.89-64.39,20.87-96.57,31.36C10.18,366,9,366.34,7.77,366.69Z"
      transform="translate(-0.25 -0.25)"></path>
    <path class="icon-outline"
      d="M375.65,419.67c4.39-19.09,8.61-37.55,12.87-56q15.25-66,30.56-131.94c3-13,5.95-26.08,9.78-38.86,1.91-6.38.09-9.93-5.12-12.87-11.15-6.3-22.27-12.67-33.41-19-1.85-1.05-4.27-1.57-5.52-3.09s-1.88-4.12-1.29-5.67c.48-1.24,3.79-2.74,4.9-2.2,17.95,8.75,35.85,17.6,53.42,27.05,1.94,1,3,6.19,2.44,9.06C435.66,232.11,427,278,417.74,323.86c-7.44,36.87-15.64,73.58-23.56,110.35-2.47,11.48-8.69,14.32-19.21,9-61.84-31.36-127.05-52.47-196-59.55C143.43,380,107.4,381.1,71.6,380.09c-2.58-.08-5.16,0-7.76-1,52.49-10.41,105.32-12.88,158.39-5.35S326.41,396.77,375.65,419.67Z"
      transform="translate(-0.25 -0.25)"></path>
    <path class="icon-outline"
      d="M34.53,368.83C137.78,331.16,242.45,329.46,349,358.08c1-20.76,1.87-40.75,3.06-60.72q4.21-70.86,8.73-141.71c.65-10.4,1.26-20.83,2.5-31.17.66-5.57-1.39-8.5-6.3-10.29-12-4.37-23.93-9.2-36.11-13.12-5.89-1.9-6.84-4.85-4.74-10.7,20.23,3,39.82,7.82,57.68,17.82,2.47,1.38,3.83,6.79,3.77,10.3q-1.1,61-2.87,121.92c-1.3,42.22-2.93,84.44-4.64,126.64-.6,14.76-6,17.49-20.28,13.82-24.78-6.37-49.68-12.54-74.84-17.05a693.1,693.1,0,0,0-69.07-8.5c-37.37-2.89-74.6-.05-111.56,5.85-18.94,3-37.79,6.63-56.69,9.93a12.43,12.43,0,0,1-3-.21Z"
      transform="translate(-0.25 -0.25)"></path>
  </g>
</svg>