<?xml version="1.0" encoding="UTF-8"?>
<svg xmlns="http://www.w3.org/2000/svg" viewBox="0 0 458.5 458.5">
  <defs>
    <style>
      .icon-circle {
        fill: #ef7d19;
      }

      .icon-outline {
        fill: #757575;
      }
    </style>
  </defs>
  <title>02_icon_design</title>

  <g id="icon-design-svg" data-name="Ebene 1">
    <path class="icon-circle"
      d="M416.75,97.22a228.19,228.19,0,0,1,42,132.28c0,126.61-102.64,229.25-229.25,229.25A228.86,228.86,0,0,1,47.62,369.06c7.66.7,15.69,1.2,22.63-1a5,5,0,0,0,2.2-1.36,208.92,208.92,0,0,0,157.34,71.22c115.65,0,209.41-93.76,209.41-209.41a208.41,208.41,0,0,0-36.51-118.16,4.86,4.86,0,0,0,2.05-2.09c.53-1,1.06-1.91,1.6-2.86C409.91,102.79,413.45,100.13,416.75,97.22Z"
      transform="translate(-0.25 -0.25)"></path>
    <path class="icon-circle"
      d="M362.76,42.94a95.22,95.22,0,0,1-7.38,9.27,33.15,33.15,0,0,1-5.67,4.62A208.44,208.44,0,0,0,229.79,19.11c-115.66,0-209.41,93.76-209.41,209.41a209.25,209.25,0,0,0,9.38,62.16l-.84.07a5.36,5.36,0,0,0-3.08,1.36,117.09,117.09,0,0,0-16.34,2A229.12,229.12,0,0,1,.25,229.5C.25,102.89,102.89.25,229.5.25A228.22,228.22,0,0,1,362.76,42.94Z"
      transform="translate(-0.25 -0.25)"></path>
    <path class="icon-outline"
      d="M25.5,322.18c1.58.13,3.19.14,4.75.4,10.14,1.69,20.25,3.61,30.42,5.1,8.6,1.26,17.27,2.2,25.93,3,5.16.46,10.36.34,15.55.43a33.08,33.08,0,0,0,3.56-.3l.05-.69c-4.64-.77-9.26-1.66-13.91-2.28-16-2.12-32.18-3.21-47.74-8-3.57-1.09-7-2.58-10.54-3.88l.09-.9a19.29,19.29,0,0,1,3.63-.15c9.14,1.28,18.25,2.7,27.39,4,5.18.72,10.4,1.24,15.66,1.5-18.65-4.62-37.92-6.84-55.54-15l.09-.74a36.27,36.27,0,0,1,4.67.33c10.18,1.95,20.32,4.08,30.52,5.94,6.2,1.14,12.45,2,18.7,2.82,4.85.64,9.74,1.05,14.61,1.56l.11-.72c-4.07-.87-8.13-1.78-12.2-2.6-7-1.41-14-2.55-20.87-4.19-6.21-1.49-12.3-3.47-18.42-5.32a17.18,17.18,0,0,1-3-1.6l.25-1.08c3.41.25,6.84.35,10.22.79,14.45,1.85,28.86,3.87,43.31,5.65a36.81,36.81,0,0,0,10.34-.41c-4-.71-8.09-1.41-12.12-2.14-13.84-2.52-27.67-5.1-40.71-10.64-1.35-.57-2.34-2-3.5-3a17.85,17.85,0,0,1,4.13-.46c5.84.68,11.65,1.63,17.49,2.32,9.5,1.11,19,2.37,28.55,3.06,9.11.67,18.27.92,27.41.91a113,113,0,0,0,17.41-1.76c-5-.17-9.92-.3-14.88-.5-15.46-.62-30.92-1.44-46.11-4.51-5.91-1.19-11.65-3.28-17.43-5.07a15.62,15.62,0,0,1-3-1.77l.27-1,17.66,1.93c-8.39-2.16-16.86-3.89-24.53-8l.12-1.05,13.81,1,.12-.26c-2-.55-3.94-1.06-5.89-1.67s-4.18-1.32-6.22-2.13-3.91-1.78-5.86-2.68l.19-1c2.5.18,5,.16,7.49.56,8.23,1.36,16.41,3,24.65,4.28a78.22,78.22,0,0,0,12,.73c-16.47-4.73-33.8-6.34-49.19-14.65,18.25,2.67,36.16,7.28,54.56,8.81-33.49-7-50.33-11.41-57.27-15.71a15.69,15.69,0,0,1,2.28.17c9.07,2.08,18.09,4.41,27.22,6.22,7.31,1.46,14.71,2.59,22.13,3.32,8.65.85,17.36,1.21,26.05,1.59a44.68,44.68,0,0,0,8.88-.82c-23.67-2.09-47.1-5.15-69.46-13.94a10.21,10.21,0,0,1,1.57.06c9.66,1.81,19.26,4.05,29,5.36,8.08,1.08,16.3,1.09,24.46,1.53a114.56,114.56,0,0,0,37.18-4c7.45-2.06,14.76-4.82,21.21-9.17,6.24-4.21,12.15-8.92,18.09-13.56,1.36-1.06,2.21-.93,3.37,0q22.64,18.56,45.3,37.08L278,296.72c.27.22.49.49,1.1,1.11-2.59,2.72-5.1,5.47-7.73,8.09a205.66,205.66,0,0,1-72.23,46.86c-13.25,5-26.67,9.4-40.75,10.94-9.69,1.06-19.5,1-29.27,1.22-6.58.12-13.19-.1-19.77-.47A280.72,280.72,0,0,1,64,358a6.27,6.27,0,0,1-3-1.48c1.55.08,3.11.08,4.64.25,8.74,1,17.45,2.11,26.2,2.89,7.61.68,15.27,1.34,22.9,1.3,12-.07,24.1-.74,36.15-1.15l0-1.18c-1.44,0-2.88-.1-4.32-.08s-3.17.17-4.76.17c-10.73,0-21.46.19-32.19-.06-9.92-.23-19.87-.59-29.75-1.5-18.52-1.7-36.71-5.16-54.09-12.11-.84-.34-1.62-.83-2.43-1.25l.21-.74c2,.29,4,.47,5.92.87,11.79,2.42,23.5,5.26,35.36,7.22,10.47,1.74,21.08,2.74,31.67,3.65a205.84,205.84,0,0,0,39-.18c3.41-.35,6.84-.51,10.26-.76v-.66c-5.34-.15-10.69-.2-16-.47-12.82-.65-25.66-1.08-38.44-2.21-13.11-1.17-26.21-2.71-39.21-4.75a160.87,160.87,0,0,1-35.71-10.12,15.91,15.91,0,0,1-2-1.13l.22-.67c3.87.87,7.74,1.76,11.63,2.6,14.41,3.11,28.76,6.55,43.26,9.18a219.11,219.11,0,0,0,26.73,2.77c9.65.55,19.34.59,29,.53,3.21,0,6.43-1,9.69-1.81-3.46-.28-6.92-.57-10.38-.83-12.79-.93-25.62-1.57-38.37-2.86-10.56-1.07-21.09-2.62-31.54-4.45a124.56,124.56,0,0,1-31.13-9.69,4.38,4.38,0,0,1-2.11-1.51c20.85,4.38,41.39,9.6,62.78,9.51-6.54-1.13-13.11-2.14-19.63-3.4-6.72-1.29-13.47-2.57-20.08-4.33s-12.86-4.05-19.28-6.11Zm67.59-37.39-.15.66,22.31,1.28,0-.62Z"
      transform="translate(-0.25 -0.25)"></path>
    <path class="icon-outline"
      d="M425.61,54.59c.52,7.2-1.33,13.33-5.94,18.39Q402,92.36,384.06,111.47c-6.66,7.11-13.56,14-20.28,21.07-4.59,4.81-6.28,10.61-5.59,17.21,1,9.33,4.71,17.16,11.91,23.33,4,3.46,4.42,8.75,1.16,13-1.53,2-3.26,3.91-4.74,6-1.2,1.67-2.2,1.46-3.62.29q-13.09-10.86-26.27-21.61l-50.19-41.06c-2-1.66-4.07-3.34-6.16-4.94-1.47-1.12-1.83-2.18-.47-3.7,1.75-2,3.3-4.1,5-6.09a8.72,8.72,0,0,1,12.31-1.4,35.05,35.05,0,0,0,21.21,7.62c7.88,0,15.25-1.92,20.12-9,11.26-16.39,22.38-32.89,33.84-49.14a194.34,194.34,0,0,1,15.91-20c8.94-9.68,24.54-8.48,32.31,2.18C422.62,48.06,423.94,51.45,425.61,54.59Z"
      transform="translate(-0.25 -0.25)"></path>
    <path class="icon-outline"
      d="M332,234.12l-45.63,55.76c-3.09-2.51-6.06-4.92-9-7.34L230.22,244c-9.45-7.72-18.91-15.45-28.41-23.1-1.65-1.33-1.88-2.25-.42-4,7.36-8.85,14.47-17.92,21.94-26.69,2.41-2.83,5.63-5,8.48-7.42L244,172.36l.75.52a7.21,7.21,0,0,1-.84,2.09c-2.74,3.2-5.59,6.3-8.34,9.49a43.39,43.39,0,0,0-4.29,5.9c3.7-1.47,5.94-4.51,8.3-7.39,3.56-4.33,7.05-8.71,10.73-12.93,1-1.18,2.61-1.87,4.39-3.09.29,3.25-1.27,5-2.66,6.64-3.69,4.47-7.58,8.77-11.25,13.24a39.57,39.57,0,0,0-4.32,6.73c5.39-1.76,8.64-5.88,11.89-10q5.13-6.51,10.34-13a4.12,4.12,0,0,1,2.54-1.36,5.53,5.53,0,0,1-.41,2c-1.88,2.85-3.76,5.73-5.84,8.43-3.43,4.45-7,8.76-10.51,13.18a12.74,12.74,0,0,0-1.31,2.76l.7.74a33.22,33.22,0,0,0,4.72-3.54c4.11-4.32,8-8.89,12.1-13.2a51.65,51.65,0,0,1,5.53-4.41l1.05.94L258.44,190l.57.49c4.77-2.64,6.55-8.92,12.69-11-1,8.87-8,14-10.78,21.51,3.54-.37,5.12-2.89,7-5.05,2.18-2.53,4.3-5.11,6.56-7.57a15,15,0,0,1,3-1.88c1.11,5.57-3.35,8.72-4.58,12.91l.64.51,11-11.45,1,.51c-.05.95.22,2.1-.22,2.82-2.71,4.39-5.57,8.69-8.4,13-.48.72-1.05,1.38-1.58,2.07l.39.58a26,26,0,0,0,3.61-2.35c2.58-2.36,5-4.95,7.59-7.27.62-.55,1.84-.42,2.79-.61.12,1,.67,2.21.27,2.9-2.22,3.94-4.67,7.75-7.05,11.59-.63,1-1.33,2-2,3l.57.7c1.56-1.05,3.14-2.08,4.68-3.16,2.88-2,5.68-4.14,8.64-6,.79-.5,2.05-.27,3.1-.38,0,1.13.48,2.54,0,3.33q-4.12,6.54-8.68,12.82c-2.29,3.17-4.85,6.15-7.29,9.22l.77.79c3.08-2.66,6.11-5.36,9.23-8s6.48-5.36,9.82-7.9c.65-.49,1.75-.36,2.65-.52l.46.88c-1.08,2-2.17,4-3.18,5.88l8-5.85,1.06.66c-.48,1.9-.95,3.81-1.39,5.56l5.78-3.94,1,.6c-.32,1.33-.32,2.87-1,4-1.47,2.28-3.35,4.3-5,6.47a9.26,9.26,0,0,0-1.51,3c6.09-2,8.82-8.61,15.4-11.12-2.09,7-7.11,11.15-11.23,15.93l.59.63,15.11-14.12.82.58a41.27,41.27,0,0,1-3.19,5.33c-4.68,5.71-9.52,11.29-14.28,16.93a9.41,9.41,0,0,0-1.7,2.69C318.08,245.54,324.12,238.61,332,234.12Z"
      transform="translate(-0.25 -0.25)"></path>
    <path class="icon-outline"
      d="M274.62,127.51l27,22.1q27.86,22.78,55.7,45.59c3.71,3.06,4.81,2.42.8,6.9-2,2.23-3.79,4.63-5.6,7-1,1.33-1.86,1.5-3.23.37q-35.34-29-70.74-58c-4.08-3.34-8.14-6.71-12.27-10-1.36-1.07-1.71-1.94-.45-3.4C268.78,134.72,271.56,131.22,274.62,127.51Z"
      transform="translate(-0.25 -0.25)"></path>
    <path class="icon-outline"
      d="M347.42,215.3l-7.29,8.84c-3.67-2.95-7.22-5.77-10.74-8.62-9.21-7.47-18.43-14.91-27.59-22.43q-23.39-19.17-46.72-38.4c-1.14-.94-1.6-1.53-.33-2.89,2.09-2.23,3.87-4.75,6-7.42Z"
      transform="translate(-0.25 -0.25)"></path>
  </g>
</svg>