<?xml version="1.0" encoding="UTF-8"?>
<svg xmlns="http://www.w3.org/2000/svg" viewBox="0 0 495.18 458.5">
  <defs>
    <style>
      .icon-circle {
        fill: #ef7d19;
      }

      .icon-outline {
        fill: #757575;
      }
    </style>
  </defs>
  <title>02_icon_wirkung</title>

  <g id="icon-wirkung-svg" data-name="Ebene 1">
    <path class="icon-circle"
      d="M458.92,105.79A228.05,228.05,0,0,1,495.18,229.5c0,126.61-102.64,229.25-229.25,229.25a228.37,228.37,0,0,1-88.82-17.87c13.31-.76,26.57-2.21,39.93-2.25s26.61.26,39.83-.91c3.1.14,6.21.21,9.35.21,115.65,0,209.41-93.76,209.41-209.41a208.21,208.21,0,0,0-28.4-105.32A92.86,92.86,0,0,0,458.92,105.79Z"
      transform="translate(0 -0.25)"></path>
    <path class="icon-circle"
      d="M349.84,16.1c-.32.59-.63,1.18-1,1.77C346.27,22.54,343,28,338.67,32A209.61,209.61,0,0,0,87.85,118.76c-8.38,1.1-16.73,2.26-24.92,4.13A229.5,229.5,0,0,1,349.84,16.1Z"
      transform="translate(0 -0.25)"></path>
    <path class="icon-circle" d="M97.47,352.53H97.3l.1-.1A.86.86,0,0,0,97.47,352.53Z" transform="translate(0 -0.25)">
    </path>
    <path class="icon-outline"
      d="M220,209.93l1.56,1.26-41.05,36.09a9.1,9.1,0,0,0,1.42-.53c7.36-4.67,14.68-9.37,22.07-14a5.54,5.54,0,0,1,2.74-.71c4.06.08,8.12.29,12.17.49a15.45,15.45,0,0,1,2.29.52l-88.87,43.74-.57-.41,46-71.65.62,0c.46,1.4,1,2.78,1.37,4.19a27.14,27.14,0,0,0,1.17,4.4c.9,1.91.22,3.41-1.27,5.11-4.18,4.78-8.14,9.66-12.16,14.51-.2.23-.19.56.14,1,2.71-2.3,5.44-4.59,8.14-6.9,9.64-8.23,19.3-16.46,28.86-24.74,1.25-1.08,2-1.12,3.18-.25,2.41,1.77,4.89,3.47,7.34,5.2l.52-.43c-1.29-1.52-2.53-3.06-3.9-4.54-.88-.95-.87-1.64.31-2.64q30.67-26.19,61.24-52.43,35.44-30.39,70.91-60.77Q368,66.13,391.81,45.88a1,1,0,0,0,.42-1L357.74,68.65a22.9,22.9,0,0,1-.35-2.32c-.22-5.38-.5-10.76-.54-16.15a5.5,5.5,0,0,1,1.52-3.28c1.5-1.7,3.35-3.22,5.56-5.3,1,3.48,1.75,6.35,2.55,9.23l.45-.07c-.11-3-.08-6-.39-9a4.65,4.65,0,0,1,2.48-4.9,10.76,10.76,0,0,0,2.22-2.58l.92.43,1.52,3c.14-.56.31-.83.24-1-.93-2.8.95-4.81,3.56-6.71,2.09-1.51,4-3.15,6.25-4.94l4.81,12,.5-.09c-.16-4.14,0-8.32-.58-12.4-.46-3.17,1.71-5,4.89-7l2.17,5.3.53-.07c-.07-1.79,0-3.59-.25-5.35a3.93,3.93,0,0,1,1.64-3.66c1.74-1.51,3.42-3,5.58-5l1,26.27L416,24.4c3.32,2.19,6.09,4,8.82,5.82s2.58,1.75.07,3.9c-3.12,2.67-6.14,5.4-9.59,8.43L449.37,40c-4.09,6.21-11,7.05-18.63,6.75l0,.82c1.38.05,2.77.06,4.13.18s3,.37,4.53.57c-2.34,3.78-6.06,4.92-11.94,4.7-4.08-.16-8.29.53-12.45.84l-.1.84,16.37.76c-3.55,2.78-6.35,5.33-9.66,7.38-1.25.77-3.68.38-5.64.93l4.19.76c-1.71,1.53-3.23,3-4.95,4.36a5,5,0,0,1-2.35.51c-4.75.38-9.49.72-14.33,1.49l13.1,1.57c-2.52,2.34-4.74,4.46-7.07,6.51a3.76,3.76,0,0,1-2,.74c-8.27.65-16.53,1.25-24.8,1.85a8.22,8.22,0,0,1-1.23-.23c8.53-9,16.92-17.86,25.32-26.71l-.2-.09Z"
      transform="translate(0 -0.25)"></path>
    <path class="icon-outline"
      d="M346.16,159.61,456.82,66.45l.32.15c-.75.79-1.44,1.62-2.25,2.37q-33.11,30.9-66.23,61.78Q374,144.42,359.37,158.09a4,4,0,0,1-1.92,1.11c-3.65.36-7.31.59-11,.86Z"
      transform="translate(0 -0.25)"></path>
    <path class="icon-outline"
      d="M257.37,204.27,365.9,112.93l.46.24c-1.06,1.07-2.06,2.18-3.18,3.22Q335.61,142.15,308,167.88q-18.28,17.09-36.49,34.2a7.2,7.2,0,0,1-5.14,2.11c-2.89.07-5.79.4-8.69.62Z"
      transform="translate(0 -0.25)"></path>
    <path class="icon-outline"
      d="M301.84,181.87,410.75,90.2l.31.13a4.7,4.7,0,0,1-.65,1q-35.3,33-70.62,65.91-12,11.24-23.94,22.55a6.82,6.82,0,0,1-4.9,2c-3,.1-5.92.41-8.88.63Z"
      transform="translate(0 -0.25)"></path>
    <path class="icon-outline"
      d="M359.82,24.58,253.58,113.71a44.63,44.63,0,0,0-.3-6.21c-.44-2.23,1.23-3.5,3.12-4.94q48.26-36.63,96.44-73.33c2.17-1.65,4.32-3.31,6.48-5Z"
      transform="translate(0 -0.25)"></path>
    <path class="icon-outline"
      d="M220.4,164.87c-.09-2.34-.32-4.67-.19-7a3.83,3.83,0,0,1,1.61-2.24q19.37-14.81,38.81-29.52l63.53-48.38a2,2,0,0,1,1.5-.37L221.05,165.1Z"
      transform="translate(0 -0.25)"></path>
    <path class="icon-outline"
      d="M237,138.91a72,72,0,0,1-.19-7.49c0-.72,1.2-1.53,2-2.16q18.39-14,36.83-28,32.15-24.48,64.27-49A6.53,6.53,0,0,1,342.74,51L237.65,139.11Z"
      transform="translate(0 -0.25)"></path>
    <path class="icon-outline"
      d="M160.53,159.25a5.74,5.74,0,0,1-.35.91c-3.16,4.77-6.34,9.53-9.48,14.32-.49.75-1.14.69-2.09.21-3.28-1.66-6.56-3.31-9.85-4.88a116,116,0,0,0-25.12-8.29,85,85,0,0,0-12.63-1.7,79.89,79.89,0,0,0-24.16,1.68,76.67,76.67,0,0,0-16.66,5.61A63.64,63.64,0,0,0,38.92,184.4a76.16,76.16,0,0,0-14.53,30.2,100.36,100.36,0,0,0-2.59,30.53,125.78,125.78,0,0,0,2,17.24,213.06,213.06,0,0,0,6,22.17,182.58,182.58,0,0,0,7.07,17.69,165.47,165.47,0,0,0,17.47,29.63,182,182,0,0,0,40.15,40.49,143.68,143.68,0,0,0,43,21.79,100.06,100.06,0,0,0,20.2,3.94,86.37,86.37,0,0,0,26.07-1.44,68.86,68.86,0,0,0,16.08-5.57,63.3,63.3,0,0,0,21.2-16.93,75.5,75.5,0,0,0,14.5-28.83,104.91,104.91,0,0,0,3.3-26.46,136.56,136.56,0,0,0-2.93-27.3c-1-4.86-2.7-9.82-4.08-14.73-.24-.86-.53-1.7-.8-2.55q9.78-.86,19.59-1.67,2.79,8.28,4.77,16.75c11.42,49.15,2.44,86.58-25.19,112.52-14.66,13.76-33.83,20.32-56.16,20.06-40.16-.49-78.67-19-114.57-55.77C34,340,16.43,309.73,7,276.58c-11-38.62-9.12-72.2,6.39-99.3C44.91,122.18,113.76,128.88,160.53,159.25Z"
      transform="translate(0 -0.25)"></path>
    <path class="icon-outline"
      d="M125.08,191.64a100.11,100.11,0,0,1,25.74,12c1.94,1.28,2,1.44,1.06,2.89C149,211,146,215.33,143.1,219.79c-.63,1-1.36,1-2.55.32a61.8,61.8,0,0,0-16.62-6.65c-5.28-1.23-10.55-2.3-15.58-1.83A55.78,55.78,0,0,0,95,214.07a35.7,35.7,0,0,0-16.4,11.67,45.18,45.18,0,0,0-9.12,22.08,66.11,66.11,0,0,0,.2,19.28,70.37,70.37,0,0,0,5.1,18.49,153.56,153.56,0,0,0,6.94,14.55,102,102,0,0,0,25.58,29.46c11.56,9,23.44,14.46,35.58,16.22,9.82,1.43,18.7.33,26.45-3.54a36.38,36.38,0,0,0,13.18-10.9c5-6.68,8-14.83,8.8-24.47A71,71,0,0,0,190,286.78a79.16,79.16,0,0,0-2.27-8.57c6.47-.59,13-1.1,19.3-1.73l.18,0a95.86,95.86,0,0,1,3.44,12.69,121.45,121.45,0,0,1,2.13,19.72,72.44,72.44,0,0,1-3.08,22.6c-4.93,15.79-14.23,27-28,33.4-8.45,3.93-17.9,5.46-28.21,4.87a80.54,80.54,0,0,1-20.81-4.25,107.2,107.2,0,0,1-20-9.22,128.47,128.47,0,0,1-27-21.46A143.43,143.43,0,0,1,65.44,308.4,132.56,132.56,0,0,1,52.63,280c-1.6-5-2.36-10.13-3.47-15.19a78.15,78.15,0,0,1-1.48-16.6,72.19,72.19,0,0,1,2.66-20.37c3.88-13.47,11-23.82,21.55-30.93a51.24,51.24,0,0,1,25.68-8.6A74.64,74.64,0,0,1,125.08,191.64Z"
      transform="translate(0 -0.25)"></path>
    <path class="icon-outline"
      d="M128.14,242.25q-6.84,10.31-13.68,20.6c-4.75,7.18-1.75,19.89,6.58,28.24,8.85,8.87,21.12,10,26.12,2.34,2.18-3.33,4.39-6.64,6.59-9.95,3.71-1,7.6-1.84,11.61-2.53,3.52,13.14,1.26,27.49-9.22,34.49-13.15,8.79-33.88,2.66-49-15.35C93.42,283.72,89,260.64,99.07,247.55c4.7-6.09,11.27-9.15,19.81-8.81a25.14,25.14,0,0,1,10.14,2C128.64,241.39,128.41,241.84,128.14,242.25Z"
      transform="translate(0 -0.25)"></path>
  </g>
</svg>