<?xml version="1.0" encoding="UTF-8"?>
<svg xmlns="http://www.w3.org/2000/svg" viewBox="0 0 458.5 458.5">
  <defs>
    <style>
      .icon-circle {
        fill: #ef7d19;
      }

      .icon-outline {
        fill: #757575;
      }
    </style>
  </defs>
  <title>02_icon_text</title>

  <g id="icon-text-svg" data-name="Ebene 1">
    <path class="icon-circle"
      d="M458.75,229.5c0,126.61-102.64,229.25-229.25,229.25a228.14,228.14,0,0,1-118.7-33.09c8.26.38,16.52.75,24.79.67A151.18,151.18,0,0,0,157,424.92a208.83,208.83,0,0,0,72.82,13c115.66,0,209.41-93.76,209.41-209.41a208.43,208.43,0,0,0-19.09-87.45c0-1-.09-2-.13-3,4.18-5.31,8.08-10.83,11.88-16.41A228.17,228.17,0,0,1,458.75,229.5Z"
      transform="translate(-0.25 -0.25)"></path>
    <path class="icon-circle"
      d="M375.26,52.55c-11-.36-22.07-.66-33.11-.76A208.36,208.36,0,0,0,229.78,19.11c-115.65,0-209.4,93.76-209.4,209.41A208.64,208.64,0,0,0,37.6,311.81a81.29,81.29,0,0,0-13.89,18.81A228.27,228.27,0,0,1,.25,229.5C.25,102.89,102.89.25,229.5.25A228.35,228.35,0,0,1,375.26,52.55Z"
      transform="translate(-0.25 -0.25)"></path>
    <path class="icon-circle"
      d="M97.21,390.61c-2.26,2.58-2.47,5.82-4.14,8.62-1.24,2.08-3.59,3.77-6,5.14l-.6.23a6.53,6.53,0,0,0-1.43.82h0l-1.58.74c-4.88-4-9.58-8.28-14.11-12.7a5.79,5.79,0,0,0,.78-1.2c.49-1,1-2,1.45-3a38.48,38.48,0,0,0,9.19-13.64A211.67,211.67,0,0,0,97.21,390.61Z"
      transform="translate(-0.25 -0.25)"></path>
    <path class="icon-outline"
      d="M58.05,351.28c1.79-2.88,3.39-5.36,6.34-9.72,3.69-5.44,7.33-10.92,11.2-16.24,4.6-6.31,35.47-49.29,40.28-55.43q7-8.92,14.26-17.61c4.62-5.49,9.3-11,14.24-16.17,6.57-6.93,13.27-13.78,20.2-20.36,7.66-7.28,15.48-14.4,23.51-21.26A395.55,395.55,0,0,1,307.69,125.2c7.32-2.64,14.81-4.81,22.23-7.19.47-.15,1-.2,1.24-.71-84.34,18.17-156.43,56.9-211,125.79-.19-3.4-.78-6.84-.51-10.2a195.66,195.66,0,0,1,2.64-22.31,94.84,94.84,0,0,1,9.31-26.77c3.76-6.94,7.39-14,11.61-20.64a102.64,102.64,0,0,1,19.92-23,75,75,0,0,1,6.94-5c.56-.38,1.67-.67,2.08-.38a2.46,2.46,0,0,1,.54,2.08c-.76,4.2-1.73,8.36-2.46,12.55-.93,5.33-1.9,10.68-.32,16.06a6.14,6.14,0,0,0,.49,1c3.18-8.5,6.06-17.2,9.66-25.59,3.52-8.18,7.73-16.08,11.75-24,2.61-5.19,7.51-8.13,12-11.42,20.93-15.43,44.35-25.57,69.42-32,16.39-4.21,33-7,50-7.28,10.41-.16,20.87-.32,31.24.42,9.46.68,18.86,2.43,28.25,3.94A166,166,0,0,1,419.05,81.1c5.95,2.43,11.78,5.16,18,7.9a52.74,52.74,0,0,1-2.77,5c-4.23,5.91-8.32,11.94-12.88,17.59A169.56,169.56,0,0,1,394,138.71c-10.64,8.29-21.62,16.15-32.46,24.18-10.16,7.53-20.39,15-30.47,22.59a11.86,11.86,0,0,1-6.66,2.22c-6.45.45-12.94,1-19.39.85a122,122,0,0,1-16.09-2c-5-.81-9.9-1.91-14.83-2.92-1.37-.27-2.71-.66-4.35-1.07a6.12,6.12,0,0,0,.73,1.37A50.93,50.93,0,0,0,287,195.3c6.56,2.84,13.2,5.48,19.81,8.2l2.13.91c-2.88,2.36-5.49,4.6-8.19,6.7-12.8,10-25.89,19.53-39.91,27.71-7.13,4.16-14.49,7.9-21.73,11.87-4,2.2-8.39,2.08-12.69,1.84a125.72,125.72,0,0,1-38.52-8.21c-1.09-.42-2.15-.91-3.21-1.4s-2.05-1-3.35-1.61A14.19,14.19,0,0,0,186,251c3.93,3.79,8.26,7.18,12.41,10.75.85.73,1.68,1.49,3.06,2.71-3.83.77-6.94,1.5-10.1,2a121.23,121.23,0,0,1-27,1.39,101.53,101.53,0,0,1-26.82-5.36c-1.41-.48-2.33-.36-3.19.84-5.17,7.22-10.6,14.27-15.46,21.7-3.51,5.37-32.23,48.11-35.61,53.58a6.37,6.37,0,0,1-1,1.34A19.25,19.25,0,0,1,78,343.14c-1.66.82-4.54,3.6-9.92,12.41-2.33,1.49-4.72,3.13-7.16,5a119.58,119.58,0,0,0-14.33,12.58A180.61,180.61,0,0,1,58.05,351.28Z"
      transform="translate(-0.25 -0.25)"></path>
    <path class="icon-outline"
      d="M66,324.57q-5.91,6.92-11.81,13.85L38.29,385.09,36,375.86A88.65,88.65,0,0,0,40.86,360a88,88,0,0,0,1.79-17.26l9.74-16.29Z"
      transform="translate(-0.25 -0.25)"></path>
    <circle class="icon-outline" cx="58.86" cy="341.98" r="3.11"></circle>
    <path class="icon-outline"
      d="M43.36,405.07c3.79,0,2.33,3.4,9.49,5,7.84,1.77,25.1,1.26,35.47-1,17.4-3.81,6.29-10.6,20.26-12.55,11.69-1.64,33,1.24,33.57,3.51.31,1.16-4.6,2.54-9.5,2.68-7.39.21-10.44-2.54-16.47-2.34-7.29.24-15.34,4.69-9.5,7.7,3.61,1.86,11.22,2.5,13.3,2.68,15.81,1.33,37.87-1,45.6-5,9.06-4.75-5.5-9.84,2.53-11.38,5.57-1.07,16.48.63,25.33,2,16,2.49,24.14,5.78,37.26,11.11,1,.42,3.2,1.32,2.64,1.45-1.33.3-17.37-3.88-43.06-9.55-9.26-2-14.5-3.11-17.1-2.68-4.5.75,6.31,4.78,1.27,9.55-.36.33-5.07,4.53-20.27,6.53a150.89,150.89,0,0,1-40.53-.67c-7.42-1.3-9-2.71-15.2-2.85-7.3-.17-8.49,2.26-19,3.35A117.47,117.47,0,0,1,55,412.21c-7.11-.87-17.53-3-16.47-5.25C38.93,406.05,41.25,405,43.36,405.07Z"
      transform="translate(-0.25 -0.25)"></path>
  </g>
</svg>