<?xml version="1.0" encoding="iso-8859-1"?>
<!-- Generator: Adobe Illustrator 19.0.0, SVG Export Plug-In . SVG Version: 6.00 Build 0)  -->
<svg version="1.1" id="Layer_1" xmlns="http://www.w3.org/2000/svg" xmlns:xlink="http://www.w3.org/1999/xlink" x="0px" y="0px"
	 viewBox="0 0 512 512" style="enable-background:new 0 0 512 512;" xml:space="preserve">
<g transform="translate(0 1)">
	<g>
		<g>
			<path d="M409.6,357.4c-42.667,0-76.8,34.133-76.8,76.8s34.133,76.8,76.8,76.8c42.667,0,76.8-34.133,76.8-76.8
				S452.267,357.4,409.6,357.4z M466.975,450.992c-5.636,19.64-20.943,34.947-40.583,40.583c-0.895-3.78-3.975-6.175-8.259-6.175
				c-5.12,0-8.533,3.413-8.533,8.533c-33.28,0-59.733-26.453-59.733-59.733s26.453-59.733,59.733-59.733
				c33.28,0,59.733,26.453,59.733,59.733c-5.12,0-8.533,3.413-8.533,8.533C460.8,447.017,463.195,450.098,466.975,450.992z"/>
			<path d="M196.267,408.6c-28.16,0-51.2,23.04-51.2,51.2c0,28.16,23.04,51.2,51.2,51.2s51.2-23.04,51.2-51.2
				C247.467,431.64,224.427,408.6,196.267,408.6z M212.448,489.826c-1.328-2.754-4.068-4.426-7.648-4.426
				c-5.12,0-8.533,3.413-8.533,8.533c-18.773,0-34.133-15.36-34.133-34.133c0-18.773,15.36-34.133,34.133-34.133
				S230.4,441.027,230.4,459.8c-5.12,0-8.533,3.413-8.533,8.533c0,3.58,1.672,6.32,4.426,7.648
				C223.121,481.826,218.292,486.654,212.448,489.826z"/>
			<path d="M284.16,300.227c-3.413,3.413-3.413,8.533,0,11.947c3.413,3.413,8.533,3.413,11.947,0c3.413-3.413,3.413-8.533,0-11.947
				C292.693,296.813,287.573,296.813,284.16,300.227z"/>
			<path d="M232.96,260.973l25.6,25.6c1.707,1.707,3.413,2.56,5.973,2.56s4.267-0.853,5.973-2.56c3.413-3.413,3.413-8.533,0-11.947
				l-25.6-25.6c-3.413-3.413-8.533-3.413-11.947,0S229.547,257.56,232.96,260.973z"/>
			<path d="M341.333,365.933c2.56,0,4.267-0.853,5.973-2.56c3.413-3.413,3.413-8.533,0-11.947l-25.6-25.6
				c-3.413-3.413-8.533-3.413-11.947,0c-3.413,3.413-3.413,8.533,0,11.947l25.6,25.6
				C337.067,365.08,338.773,365.933,341.333,365.933z"/>
			<path d="M224.427,308.76c-3.413,3.413-3.413,8.533,0,11.947c3.413,3.413,8.533,3.413,11.947,0c3.413-3.413,3.413-8.533,0-11.947
				C232.96,305.347,227.84,305.347,224.427,308.76z"/>
			<path d="M185.173,257.56c-3.413-3.413-8.533-3.413-11.947,0s-3.413,8.533,0,11.947l25.6,25.6c1.707,1.707,3.413,2.56,5.973,2.56
				s4.267-0.853,5.973-2.56c3.413-3.413,3.413-8.533,0-11.947L185.173,257.56z"/>
			<path d="M261.973,334.36c-3.413-3.413-8.533-3.413-11.947,0c-3.413,3.413-3.413,8.533,0,11.947l25.6,25.6
				c1.707,1.707,3.413,2.56,5.973,2.56s4.267-0.853,5.973-2.56c3.413-3.413,3.413-8.533,0-11.947L261.973,334.36z"/>
			<path d="M313.173,260.973c3.413-3.413,3.413-8.533,0-11.947s-8.533-3.413-11.947,0c-3.413,3.413-3.413,8.533,0,11.947
				C304.64,264.387,309.76,264.387,313.173,260.973z"/>
			<path d="M275.627,235.373c1.707,1.707,3.413,2.56,5.973,2.56s4.267-0.853,5.973-2.56c3.413-3.413,3.413-8.533,0-11.947
				l-25.6-25.6c-3.413-3.413-8.533-3.413-11.947,0s-3.413,8.533,0,11.947L275.627,235.373z"/>
			<path d="M352.427,312.173c1.707,1.707,3.413,2.56,5.973,2.56s4.267-0.853,5.973-2.56c3.413-3.413,3.413-8.533,0-11.947
				l-25.6-25.6c-3.413-3.413-8.533-3.413-11.947,0s-3.413,8.533,0,11.947L352.427,312.173z"/>
			<path d="M147.627,163.693c-3.413,3.413-3.413,8.533,0,11.947s8.533,3.413,11.947,0s3.413-8.533,0-11.947
				S151.04,160.28,147.627,163.693z"/>
			<path d="M122.027,150.04c1.707,1.707,3.413,2.56,5.973,2.56s4.267-0.853,5.973-2.56c3.413-3.413,3.413-8.533,0-11.947l-25.6-25.6
				c-3.413-3.413-8.533-3.413-11.947,0s-3.413,8.533,0,11.947L122.027,150.04z"/>
			<path d="M173.227,189.293c-3.413,3.413-3.413,8.533,0,11.947l25.6,25.6c1.707,1.707,3.413,2.56,5.973,2.56
				s4.267-0.853,5.973-2.56c3.413-3.413,3.413-8.533,0-11.947l-25.6-25.6C181.76,185.88,176.64,185.88,173.227,189.293z"/>
			<path d="M99.84,184.173c3.413-3.413,3.413-8.533,0-11.947s-8.533-3.413-11.947,0s-3.413,8.533,0,11.947
				S96.427,187.587,99.84,184.173z"/>
			<path d="M62.293,158.573c1.707,1.707,3.413,2.56,5.973,2.56s4.267-0.853,5.973-2.56c3.413-3.413,3.413-8.533,0-11.947l-25.6-25.6
				c-3.413-3.413-8.533-3.413-11.947,0s-3.413,8.533,0,11.947L62.293,158.573z"/>
			<path d="M145.067,237.933c2.56,0,4.267-0.853,5.973-2.56c3.413-3.413,3.413-8.533,0-11.947l-25.6-25.6
				c-3.413-3.413-8.533-3.413-11.947,0s-3.413,8.533,0,11.947l25.6,25.6C140.8,237.08,142.507,237.933,145.067,237.933z"/>
			<path d="M176.64,124.44c3.413-3.413,3.413-8.533,0-11.947c-3.413-3.413-8.533-3.413-11.947,0s-3.413,8.533,0,11.947
				S173.227,127.853,176.64,124.44z"/>
			<path d="M139.093,98.84c1.707,1.707,3.413,2.56,5.973,2.56s4.267-0.853,5.973-2.56c3.413-3.413,3.413-8.533,0-11.947l-25.6-25.6
				c-3.413-3.413-8.533-3.413-11.947,0s-3.413,8.533,0,11.947L139.093,98.84z"/>
			<path d="M215.893,175.64c1.707,1.707,3.413,2.56,5.973,2.56s4.267-0.853,5.973-2.56c3.413-3.413,3.413-8.533,0-11.947l-25.6-25.6
				c-3.413-3.413-8.533-3.413-11.947,0s-3.413,8.533,0,11.947L215.893,175.64z"/>
			<path d="M79.36,342.893c-3.413,3.413-3.413,8.533,0,11.947s8.533,3.413,11.947,0s3.413-8.533,0-11.947
				S82.773,339.48,79.36,342.893z"/>
			<path d="M53.76,329.24c1.707,1.707,3.413,2.56,5.973,2.56s4.267-0.853,5.973-2.56c3.413-3.413,3.413-8.533,0-11.947l-25.6-25.6
				c-3.413-3.413-8.533-3.413-11.947,0c-3.413,3.413-3.413,8.533,0,11.947L53.76,329.24z"/>
			<path d="M142.507,394.093l-25.6-25.6c-3.413-3.413-8.533-3.413-11.947,0s-3.413,8.533,0,11.947l25.6,25.6
				c1.707,1.707,3.413,2.56,5.973,2.56s4.267-0.853,5.973-2.56C145.92,402.627,145.92,397.507,142.507,394.093z"/>
			<path d="M19.627,351.427c-3.413,3.413-3.413,8.533,0,11.947s8.533,3.413,11.947,0s3.413-8.533,0-11.947
				S23.04,348.013,19.627,351.427z"/>
			<path d="M57.173,377.027c-3.413-3.413-8.533-3.413-11.947,0c-3.413,3.413-3.413,8.533,0,11.947l25.6,25.6
				c1.707,1.707,3.413,2.56,5.973,2.56s4.267-0.853,5.973-2.56c3.413-3.413,3.413-8.533,0-11.947L57.173,377.027z"/>
			<path d="M108.373,303.64c3.413-3.413,3.413-8.533,0-11.947s-8.533-3.413-11.947,0s-3.413,8.533,0,11.947
				S104.96,307.053,108.373,303.64z"/>
			<path d="M45.227,240.493c-3.413,3.413-3.413,8.533,0,11.947l25.6,25.6c1.707,1.707,3.413,2.56,5.973,2.56s4.267-0.853,5.973-2.56
				c3.413-3.413,3.413-8.533,0-11.947l-25.6-25.6C53.76,237.08,48.64,237.08,45.227,240.493z"/>
			<path d="M147.627,354.84c1.707,1.707,3.413,2.56,5.973,2.56s4.267-0.853,5.973-2.56c3.413-3.413,3.413-8.533,0-11.947l-25.6-25.6
				c-3.413-3.413-8.533-3.413-11.947,0s-3.413,8.533,0,11.947L147.627,354.84z"/>
			<path d="M392.533,220.867c0,28.16,23.04,51.2,51.2,51.2s51.2-23.04,51.2-51.2c0-28.16-23.04-51.2-51.2-51.2
				S392.533,192.707,392.533,220.867z M443.733,186.733c18.773,0,34.133,15.36,34.133,34.133c-5.12,0-8.533,3.413-8.533,8.533
				c0,3.58,1.672,6.32,4.426,7.648c-3.172,5.845-8,10.673-13.845,13.845c-1.328-2.754-4.068-4.426-7.648-4.426
				c-5.12,0-8.533,3.413-8.533,8.533c-18.773,0-34.133-15.36-34.133-34.133C409.6,202.093,424.96,186.733,443.733,186.733z"/>
			<path d="M326.827,103.96c-3.413,3.413-3.413,8.533,0,11.947s8.533,3.413,11.947,0c3.413-3.413,3.413-8.533,0-11.947
				C335.36,100.547,330.24,100.547,326.827,103.96z"/>
			<path d="M301.227,90.307c1.707,1.707,3.413,2.56,5.973,2.56s4.267-0.853,5.973-2.56c3.413-3.413,3.413-8.533,0-11.947l-25.6-25.6
				c-3.413-3.413-8.533-3.413-11.947,0s-3.413,8.533,0,11.947L301.227,90.307z"/>
			<path d="M352.427,129.56c-3.413,3.413-3.413,8.533,0,11.947l25.6,25.6c1.707,1.707,3.413,2.56,5.973,2.56s4.267-0.853,5.973-2.56
				c3.413-3.413,3.413-8.533,0-11.947l-25.6-25.6C360.96,126.147,355.84,126.147,352.427,129.56z"/>
			<path d="M279.04,124.44c3.413-3.413,3.413-8.533,0-11.947s-8.533-3.413-11.947,0s-3.413,8.533,0,11.947
				S275.627,127.853,279.04,124.44z"/>
			<path d="M330.24,163.693l-25.6-25.6c-3.413-3.413-8.533-3.413-11.947,0s-3.413,8.533,0,11.947l25.6,25.6
				c1.707,1.707,3.413,2.56,5.973,2.56s4.267-0.853,5.973-2.56C333.653,172.227,333.653,167.107,330.24,163.693z"/>
			<path d="M355.84,64.707c3.413-3.413,3.413-8.533,0-11.947c-3.413-3.413-8.533-3.413-11.947,0c-3.413,3.413-3.413,8.533,0,11.947
				C347.307,68.12,352.427,68.12,355.84,64.707z"/>
			<path d="M318.293,39.107c1.707,1.707,3.413,2.56,5.973,2.56s4.267-0.853,5.973-2.56c3.413-3.413,3.413-8.533,0-11.947l-25.6-25.6
				c-3.413-3.413-8.533-3.413-11.947,0s-3.413,8.533,0,11.947L318.293,39.107z"/>
			<path d="M395.093,115.907c1.707,1.707,3.413,2.56,5.973,2.56s4.267-0.853,5.973-2.56c3.413-3.413,3.413-8.533,0-11.947
				l-25.6-25.6c-3.413-3.413-8.533-3.413-11.947,0c-3.413,3.413-3.413,8.533,0,11.947L395.093,115.907z"/>
			<path d="M418.133,434.2c-5.12,0-8.533,3.413-8.533,8.533s3.413,8.533,8.533,8.533c5.12,0,8.533-3.413,8.533-8.533
				S423.253,434.2,418.133,434.2z"/>
			<path d="M443.733,459.8c-5.12,0-8.533,3.413-8.533,8.533s3.413,8.533,8.533,8.533s8.533-3.413,8.533-8.533
				S448.853,459.8,443.733,459.8z"/>
			<path d="M401.067,459.8c-5.12,0-8.533,3.413-8.533,8.533s3.413,8.533,8.533,8.533s8.533-3.413,8.533-8.533
				S406.187,459.8,401.067,459.8z"/>
			<path d="M443.733,417.133c-5.12,0-8.533,3.413-8.533,8.533s3.413,8.533,8.533,8.533s8.533-3.413,8.533-8.533
				S448.853,417.133,443.733,417.133z"/>
			<path d="M204.8,459.8c-5.12,0-8.533,3.413-8.533,8.533s3.413,8.533,8.533,8.533s8.533-3.413,8.533-8.533
				S209.92,459.8,204.8,459.8z"/>
			<path d="M452.267,237.933c5.12,0,8.533-3.413,8.533-8.533s-3.413-8.533-8.533-8.533s-8.533,3.413-8.533,8.533
				S447.147,237.933,452.267,237.933z"/>
		</g>
	</g>
</g>
<g>
</g>
<g>
</g>
<g>
</g>
<g>
</g>
<g>
</g>
<g>
</g>
<g>
</g>
<g>
</g>
<g>
</g>
<g>
</g>
<g>
</g>
<g>
</g>
<g>
</g>
<g>
</g>
<g>
</g>
</svg>
