<?xml version="1.0" encoding="iso-8859-1"?>
<!-- Generator: Adobe Illustrator 19.0.0, SVG Export Plug-In . SVG Version: 6.00 Build 0)  -->
<svg version="1.1" id="Layer_1" xmlns="http://www.w3.org/2000/svg" xmlns:xlink="http://www.w3.org/1999/xlink" x="0px" y="0px"
	 viewBox="0 0 512 512" style="enable-background:new 0 0 512 512;" xml:space="preserve">
<g transform="translate(1 1)">
	<g>
		<g>
			<path d="M75.8,340.333c-23.893,0-42.667,18.773-42.667,42.667s18.773,42.667,42.667,42.667c23.893,0,42.667-18.773,42.667-42.667
				S99.693,340.333,75.8,340.333z M75.8,408.6c-14.507,0-25.6-11.093-25.6-25.6c0-14.507,11.093-25.6,25.6-25.6
				s25.6,11.093,25.6,25.6C101.4,397.507,90.307,408.6,75.8,408.6z"/>
			<path d="M263.533,348.867c-33.28,0-59.733,26.453-59.733,59.733c0,33.28,26.453,59.733,59.733,59.733
				c33.28,0,59.733-26.453,59.733-59.733C323.267,375.32,296.813,348.867,263.533,348.867z M305.819,414.346
				c-1.02-3.532-4.031-5.746-8.152-5.746c-5.12,0-8.533,3.413-8.533,8.533s3.413,8.533,8.533,8.533c2.415,0,4.444-0.767,5.92-2.107
				c-2.857,7.837-7.914,14.536-14.462,19.383c0.001-0.071,0.009-0.138,0.009-0.209c0-5.12-3.413-8.533-8.533-8.533
				s-8.533,3.413-8.533,8.533c0,3.028,1.201,5.452,3.236,6.933c-3.728,1.036-7.671,1.6-11.77,1.6s-8.041-0.564-11.77-1.6
				c2.035-1.481,3.236-3.904,3.236-6.933c0-5.12-3.413-8.533-8.533-8.533s-8.533,3.413-8.533,8.533c0,0.071,0.007,0.139,0.009,0.209
				c-6.548-4.847-11.606-11.546-14.462-19.383c1.477,1.34,3.505,2.107,5.92,2.107c5.12,0,8.533-3.413,8.533-8.533
				s-3.413-8.533-8.533-8.533c-4.121,0-7.132,2.214-8.152,5.746c-0.243-1.878-0.381-3.792-0.381-5.746
				c0-23.893,18.773-42.667,42.667-42.667c23.893,0,42.667,18.773,42.667,42.667C306.2,410.553,306.062,412.468,305.819,414.346z"/>
			<path d="M263.533,408.6c-5.12,0-8.533,3.413-8.533,8.533s3.413,8.533,8.533,8.533s8.533-3.413,8.533-8.533
				S268.653,408.6,263.533,408.6z"/>
			<path d="M442.733,289.133c-18.773,0-34.133,15.36-34.133,34.133c0,18.773,15.36,34.133,34.133,34.133
				c18.773,0,34.133-15.36,34.133-34.133C476.867,304.493,461.507,289.133,442.733,289.133z M442.733,340.333
				c-9.387,0-17.067-7.68-17.067-17.067s7.68-17.067,17.067-17.067s17.067,7.68,17.067,17.067S452.12,340.333,442.733,340.333z"/>
			<path d="M323.267,7.533c-18.773,0-34.133,15.36-34.133,34.133v76.8c0,14.507-11.093,25.6-25.6,25.6
				c-14.507,0-25.6-11.093-25.6-25.6v-51.2c0-18.773-15.36-34.133-34.133-34.133c-18.773,0-34.133,15.36-34.133,34.133V408.6
				c0,52.053,41.813,93.867,93.867,93.867S357.4,460.653,357.4,408.6V41.667C357.4,22.893,342.04,7.533,323.267,7.533z
				 M340.333,408.6c0,42.667-34.133,76.8-76.8,76.8c-42.667,0-76.8-34.133-76.8-76.8V67.267c0-9.387,7.68-17.067,17.067-17.067
				c9.387,0,17.067,7.68,17.067,17.067v51.2c0,23.893,18.773,42.667,42.667,42.667c23.893,0,42.667-18.773,42.667-42.667v-76.8
				c0-9.387,7.68-17.067,17.067-17.067s17.067,7.68,17.067,17.067V408.6z"/>
			<path d="M127,67.267c-14.507,0-25.6,11.093-25.6,25.6v93.867c0,14.507-11.093,25.6-25.6,25.6s-25.6-11.093-25.6-25.6v-51.2
				c0-14.507-11.093-25.6-25.6-25.6c-14.507,0-25.6,11.093-25.6,25.6V383c0,42.667,34.133,76.8,76.8,76.8
				c42.667,0,76.8-34.133,76.8-76.8V92.867C152.6,78.36,141.507,67.267,127,67.267z M135.533,383
				c0,33.28-26.453,59.733-59.733,59.733c-33.28,0-59.733-26.453-59.733-59.733V135.533c0-5.12,3.413-8.533,8.533-8.533
				s8.533,3.413,8.533,8.533v51.2c0,23.893,18.773,42.667,42.667,42.667c23.893,0,42.667-18.773,42.667-42.667V92.867
				c0-5.12,3.413-8.533,8.533-8.533s8.533,3.413,8.533,8.533V383z"/>
			<path d="M485.4,101.4c-14.507,0-25.6,11.093-25.6,25.6v59.733c0,5.12-3.413,8.533-8.533,8.533c-5.12,0-8.533-3.413-8.533-8.533
				v-102.4c0-18.773-15.36-34.133-34.133-34.133c-18.773,0-34.133,15.36-34.133,34.133v238.933c0,37.547,30.72,68.267,68.267,68.267
				S511,360.813,511,323.267V127C511,112.493,499.907,101.4,485.4,101.4z M493.933,323.267c0,28.16-23.04,51.2-51.2,51.2
				c-28.16,0-51.2-23.04-51.2-51.2V84.333c0-9.387,7.68-17.067,17.067-17.067s17.067,7.68,17.067,17.067v102.4
				c0,14.507,11.093,25.6,25.6,25.6c14.507,0,25.6-11.093,25.6-25.6V127c0-5.12,3.413-8.533,8.533-8.533s8.533,3.413,8.533,8.533
				V323.267z"/>
			<path d="M263.533,263.533c5.12,0,8.533-3.413,8.533-8.533c0-5.12-3.413-8.533-8.533-8.533S255,249.88,255,255
				C255,260.12,258.413,263.533,263.533,263.533z"/>
			<path d="M263.533,229.4c5.12,0,8.533-3.413,8.533-8.533V203.8c0-5.12-3.413-8.533-8.533-8.533S255,198.68,255,203.8v17.067
				C255,225.987,258.413,229.4,263.533,229.4z"/>
			<path d="M263.533,323.267c5.12,0,8.533-3.413,8.533-8.533v-25.6c0-5.12-3.413-8.533-8.533-8.533S255,284.013,255,289.133v25.6
				C255,319.853,258.413,323.267,263.533,323.267z"/>
			<path d="M75.8,263.533c5.12,0,8.533-3.413,8.533-8.533c0-5.12-3.413-8.533-8.533-8.533s-8.533,3.413-8.533,8.533
				C67.267,260.12,70.68,263.533,75.8,263.533z"/>
			<path d="M75.8,323.267c5.12,0,8.533-3.413,8.533-8.533v-25.6c0-5.12-3.413-8.533-8.533-8.533s-8.533,3.413-8.533,8.533v25.6
				C67.267,319.853,70.68,323.267,75.8,323.267z"/>
			<path d="M109.933,289.133c-5.12,0-8.533,3.413-8.533,8.533V331.8c0,5.12,3.413,8.533,8.533,8.533s8.533-3.413,8.533-8.533
				v-34.133C118.467,292.547,115.053,289.133,109.933,289.133z"/>
			<path d="M109.933,237.933c-5.12,0-8.533,3.413-8.533,8.533v17.067c0,5.12,3.413,8.533,8.533,8.533s8.533-3.413,8.533-8.533
				v-17.067C118.467,241.347,115.053,237.933,109.933,237.933z"/>
			<path d="M41.667,289.133c5.12,0,8.533-3.413,8.533-8.533v-34.133c0-5.12-3.413-8.533-8.533-8.533s-8.533,3.413-8.533,8.533V280.6
				C33.133,285.72,36.547,289.133,41.667,289.133z"/>
			<path d="M41.667,340.333c5.12,0,8.533-3.413,8.533-8.533v-17.067c0-5.12-3.413-8.533-8.533-8.533s-8.533,3.413-8.533,8.533V331.8
				C33.133,336.92,36.547,340.333,41.667,340.333z"/>
			<path d="M306.2,263.533c5.12,0,8.533-3.413,8.533-8.533v-68.267c0-5.12-3.413-8.533-8.533-8.533s-8.533,3.413-8.533,8.533V255
				C297.667,260.12,301.08,263.533,306.2,263.533z"/>
			<path d="M306.2,314.733c5.12,0,8.533-3.413,8.533-8.533v-17.067c0-5.12-3.413-8.533-8.533-8.533s-8.533,3.413-8.533,8.533V306.2
				C297.667,311.32,301.08,314.733,306.2,314.733z"/>
			<path d="M220.867,314.733c5.12,0,8.533-3.413,8.533-8.533v-68.267c0-5.12-3.413-8.533-8.533-8.533s-8.533,3.413-8.533,8.533
				V306.2C212.333,311.32,215.747,314.733,220.867,314.733z"/>
			<path d="M220.867,212.333c5.12,0,8.533-3.413,8.533-8.533v-17.067c0-5.12-3.413-8.533-8.533-8.533s-8.533,3.413-8.533,8.533
				V203.8C212.333,208.92,215.747,212.333,220.867,212.333z"/>
			<path d="M442.733,246.467c5.12,0,8.533-3.413,8.533-8.533s-3.413-8.533-8.533-8.533s-8.533,3.413-8.533,8.533
				S437.613,246.467,442.733,246.467z"/>
			<path d="M468.333,255c-5.12,0-8.533,3.413-8.533,8.533s3.413,8.533,8.533,8.533s8.533-3.413,8.533-8.533S473.453,255,468.333,255
				z"/>
			<path d="M417.133,272.067c5.12,0,8.533-3.413,8.533-8.533S422.253,255,417.133,255s-8.533,3.413-8.533,8.533
				S412.013,272.067,417.133,272.067z"/>
		</g>
	</g>
</g>
<g>
</g>
<g>
</g>
<g>
</g>
<g>
</g>
<g>
</g>
<g>
</g>
<g>
</g>
<g>
</g>
<g>
</g>
<g>
</g>
<g>
</g>
<g>
</g>
<g>
</g>
<g>
</g>
<g>
</g>
</svg>
