<?xml version="1.0" encoding="utf-8"?>
<!-- Generator: Adobe Illustrator 19.0.0, SVG Export Plug-In . SVG Version: 6.00 Build 0)  -->
<svg version="1.1" id="icrate-pointer-finger" xmlns="http://www.w3.org/2000/svg"
	xmlns:xlink="http://www.w3.org/1999/xlink" x="0px" y="0px" viewBox="0 0 512 512"
	style="enable-background:new 0 0 512 512;" xml:space="preserve">
	<defs>
		<style>
			.icrate-pointer-finger-outline {
				fill: #d3aa61ff;
			}

			.icrate-pointer-finger-inner {
				fill: #f3d98fff;
			}

			path[class^="icrate-cursor-click-indicator"] {
				fill: #dab678ff;
			}
		</style>
	</defs>
	<g id="icrate-pointer-finger-group">
		<rect x="167.596" y="411.109" class="icrate-pointer-finger-inner" width="207.997" height="85.957" />
		<path class="icrate-pointer-finger-outline" d="M375.598,512h-208c-8.251,0-14.941-6.689-14.941-14.941v-85.956c0-8.252,6.691-14.941,14.941-14.941
		h208c8.251,0,14.941,6.689,14.941,14.941v85.956C390.539,505.311,383.848,512,375.598,512z M182.539,482.117h178.118v-56.073
		H182.539V482.117z" />
		<path class="icrate-pointer-finger-outline" d="M156.967,360.457c-6.331,0-12.207-4.055-14.232-10.41l-37.921-119.034
		c-7.734-24.232,5.687-50.256,29.917-58.005c11.748-3.752,24.248-2.704,35.206,2.945c10.961,5.651,19.062,15.231,22.811,26.975
		l14.847,46.201c2.524,7.856-1.797,16.273-9.654,18.796c-7.861,2.525-16.273-1.799-18.796-9.654l-14.855-46.228
		c-1.33-4.164-4.184-7.538-8.046-9.53c-3.868-1.993-8.276-2.362-12.418-1.04c-8.539,2.731-13.271,11.911-10.543,20.462
		l37.924,119.043c2.506,7.862-1.838,16.267-9.701,18.771C159.998,360.228,158.468,360.457,156.967,360.457z" />
		<path class="icrate-pointer-finger-outline" d="M394.433,360.452c-8.251,0-14.941-6.689-14.941-14.941v-139.88c0-9.413-7.657-17.07-17.07-17.07
		h-106.63c-8.251,0-14.941-6.689-14.941-14.941V46.154c0-8.971-7.299-16.271-16.271-16.271s-16.271,7.299-16.271,16.271v94.991
		c0,8.252-6.691,14.941-14.941,14.941c-8.251,0-14.941-6.689-14.941-14.941V46.154C178.425,20.704,199.13,0,224.579,0
		s46.154,20.704,46.154,46.154v112.526h91.689c25.89,0,46.953,21.063,46.953,46.953v139.88
		C409.374,353.763,402.685,360.452,394.433,360.452z" />
	</g>
</svg>