<?xml version="1.0" encoding="utf-8"?>
<!-- Generator: Adobe Illustrator 19.0.0, SVG Export Plug-In . SVG Version: 6.00 Build 0)  -->
<svg version="1.1" id="icrate-pointer-minus" xmlns="http://www.w3.org/2000/svg"
	xmlns:xlink="http://www.w3.org/1999/xlink" x="0px" y="0px" viewBox="0 0 512 512"
	style="enable-background:new 0 0 512 512;" xml:space="preserve">
	<defs>
		<style>
			.icrate-pointer-minus-outline {
				fill: #d3aa61ff;
			}

			.icrate-pointer-minus-inner {
				fill: #f3d98fff;
			}
		</style>
	</defs>
	<g id="icrate-pointer-minus-group">
		<path class="icrate-pointer-minus-outline" d="M446.258,77.583h-31.71c-8.207,0-14.859-6.653-14.859-14.859s6.653-14.859,14.859-14.859h16.851
	V29.719H302.359v18.145h64.52c8.207,0,14.859,6.653,14.859,14.859s-6.653,14.859-14.859,14.859h-79.379
	c-8.207,0-14.859-6.653-14.859-14.859V14.859C272.64,6.653,279.292,0,287.499,0h158.758c8.207,0,14.859,6.653,14.859,14.859v47.864
	C461.117,70.93,454.464,77.583,446.258,77.583z" />
		<rect x="115.503" y="411.651" class="icrate-pointer-minus-inner" width="206.858" height="85.486" />
		<path class="icrate-pointer-minus-outline" d="M322.361,512H115.5c-8.207,0-14.859-6.653-14.859-14.859v-85.485
		c0-8.207,6.653-14.859,14.859-14.859h206.861c8.207,0,14.859,6.653,14.859,14.859v85.485C337.22,505.346,330.568,512,322.361,512z
		 M130.359,482.281h177.142v-55.766H130.359V482.281z" />
		<path class="icrate-pointer-minus-outline" d="M104.927,361.285c-6.296,0-12.142-4.033-14.155-10.353L53.059,232.55
		c-7.69-24.101,5.656-49.981,29.753-57.687c24.123-7.702,50.002,5.65,57.699,29.755l14.766,45.95
		c2.51,7.813-1.788,16.182-9.601,18.693c-7.816,2.508-16.183-1.788-18.693-9.601l-14.773-45.977
		c-2.722-8.522-11.847-13.226-20.35-10.512c-8.492,2.716-13.198,11.846-10.485,20.35L119.09,341.91
		c2.49,7.821-1.828,16.177-9.648,18.669C107.942,361.058,106.421,361.285,104.927,361.285z" />
		<path class="icrate-pointer-minus-outline" d="M341.093,361.281c-8.207,0-14.859-6.653-14.859-14.859V207.307c0-9.361-7.615-16.977-16.977-16.977
		H203.211c-8.207,0-14.859-6.653-14.859-14.859V48.703c0-8.922-7.259-16.182-16.182-16.182c-8.923,0-16.182,7.259-16.182,16.182
		v100.419c0,8.207-6.653,14.859-14.859,14.859c-8.207,0-14.859-6.653-14.859-14.859V48.703c0-25.31,20.591-45.901,45.901-45.901
		c25.31,0,45.901,20.591,45.901,45.901v111.909h91.186c25.748,0,46.696,20.947,46.696,46.696v139.114
		C355.952,354.628,349.3,361.281,341.093,361.281z" />
	</g>
</svg>