<?xml version="1.0" encoding="utf-8"?>
<!-- Generator: Adobe Illustrator 19.0.0, SVG Export Plug-In . SVG Version: 6.00 Build 0)  -->
<svg version="1.1" id="icrate-pointer-plus" xmlns="http://www.w3.org/2000/svg"
	xmlns:xlink="http://www.w3.org/1999/xlink" x="0px" y="0px" viewBox="0 0 512 512"
	style="enable-background:new 0 0 512 512;" xml:space="preserve">
	<defs>
		<style>
			.icrate-pointer-plus-outline {
				fill: #d3aa61ff;
			}

			.icrate-pointer-plus-inner {
				fill: #f3d98fff;
			}
		</style>
	</defs>
	<g id="icrate-pointer-plus-group">
		<path class="icrate-pointer-plus-outline" d="M377.638,170.061h-43.187c-7.404,0-13.408-6.003-13.408-13.408v-36.621h-36.621
	c-7.404,0-13.408-6.003-13.408-13.407V63.436c0-7.405,6.004-13.407,13.408-13.407h36.621V13.407C321.044,6.003,327.048,0,334.451,0
	h43.187c7.404,0,13.408,6.003,13.408,13.407v36.621h36.621c7.404,0,13.408,6.003,13.408,13.407v43.187
	c0,7.405-6.004,13.407-13.408,13.407h-50.029c-7.404,0-13.407-6.003-13.407-13.407s6.004-13.407,13.407-13.407h36.621V76.844
	h-36.621c-7.404,0-13.407-6.003-13.407-13.407V26.815h-16.372v36.621c0,7.405-6.004,13.407-13.407,13.407H297.83v16.372h36.621
	c7.404,0,13.407,6.003,13.407,13.407v36.621h29.779c7.404,0,13.408,6.003,13.408,13.408
	C391.046,164.057,385.042,170.061,377.638,170.061z" />
		<rect x="129.235" y="421.465" class="icrate-pointer-plus-inner" width="186.646" height="77.133" />
		<path class="icrate-pointer-plus-outline" d="M315.875,512H129.228c-7.405,0-13.408-6.003-13.408-13.407v-77.132
		c0-7.405,6.003-13.408,13.408-13.408h186.648c7.404,0,13.407,6.003,13.407,13.408v77.132C329.283,505.997,323.28,512,315.875,512z
		 M142.636,485.185h159.833v-50.317H142.636V485.185z" />
		<path class="icrate-pointer-plus-outline" d="M119.689,376.012c-5.681,0-10.955-3.639-12.772-9.341L72.889,259.856
		c-6.938-21.746,5.103-45.097,26.846-52.051c21.764-6.949,45.116,5.096,52.061,26.847l13.322,41.46
		c2.265,7.05-1.613,14.601-8.663,16.867c-7.048,2.263-14.601-1.613-16.867-8.663l-13.33-41.483
		c-2.455-7.689-10.691-11.933-18.362-9.484c-7.662,2.451-11.909,10.688-9.46,18.362l34.03,106.82
		c2.247,7.056-1.649,14.597-8.705,16.845C122.409,375.807,121.036,376.012,119.689,376.012z" />
		<path class="icrate-pointer-plus-outline" d="M332.778,376.009c-7.404,0-13.408-6.003-13.408-13.408V237.081c0-8.445-6.871-15.317-15.318-15.317
		h-95.684c-7.405,0-13.408-6.003-13.408-13.408V93.973c0-8.05-6.55-14.601-14.601-14.601s-14.601,6.55-14.601,14.601v90.605
		c0,7.405-6.003,13.408-13.407,13.408s-13.408-6.003-13.408-13.408V93.973c0-22.837,18.579-41.416,41.416-41.416
		s41.416,18.579,41.416,41.416v100.975h82.276c23.233,0,42.133,18.901,42.133,42.132V362.6
		C346.186,370.007,340.182,376.009,332.778,376.009z" />
	</g>
</svg>