<?xml version="1.0" encoding="utf-8"?>
<!-- Generator: Adobe Illustrator 19.0.0, SVG Export Plug-In . SVG Version: 6.00 Build 0)  -->
<svg version="1.1" id="Layer_1" xmlns="http://www.w3.org/2000/svg" xmlns:xlink="http://www.w3.org/1999/xlink" x="0px"
	y="0px" viewBox="0 0 512 512" style="enable-background:new 0 0 512 512;" xml:space="preserve">
	<defs>
		<style>
			.icrate-pointer-hold-vertical-outline {
				fill: #d3aa61ff;
			}

			.icrate-pointer-hold-vertical-inner {
				fill: #f3d98fff;
			}
		</style>
	</defs>
	<g id="icrate-pointer-hold-vertical-group">
		<rect x="125.037" y="413.962" class="icrate-pointer-hold-vertical-inner" width="216.628" height="83.518" />
		<path class="icrate-pointer-hold-vertical-outline" d="M341.655,512H125.029c-8.018,0-14.517-6.499-14.517-14.517v-83.517
		c0-8.018,6.499-14.517,14.517-14.517h216.625c8.018,0,14.517,6.499,14.517,14.517v83.517C356.173,505.501,349.673,512,341.655,512z
		 M139.547,482.965h187.59v-54.482h-187.59V482.965z" />
		<path class="icrate-pointer-hold-vertical-outline" d="M114.702,364.755c-6.151,0-11.862-3.94-13.829-10.114L64.028,238.984
		c-7.513-23.544,5.525-48.83,29.068-56.359c23.569-7.524,48.851,5.519,56.371,29.071l14.424,44.89
		c2.452,7.633-1.746,15.809-9.38,18.263c-7.632,2.452-15.809-1.745-18.263-9.38l-14.433-44.917
		c-1.292-4.045-4.065-7.324-7.818-9.259c-3.754-1.937-8.04-2.295-12.065-1.01c-8.297,2.654-12.894,11.573-10.242,19.881
		l36.846,115.664c2.433,7.639-1.786,15.805-9.426,18.238C117.647,364.533,116.161,364.755,114.702,364.755z" />
		<path class="icrate-pointer-hold-vertical-outline" d="M328.853,168.703h-42.961V44.844C285.892,20.117,265.775,0,241.048,0
		c-20.488,0-37.799,13.816-43.135,32.618c-5.384-2.294-11.305-3.565-17.517-3.565c-24.727,0-44.844,20.117-44.844,44.844v80.674
		c0,8.018,6.499,14.517,14.517,14.517c8.018,0,14.517-6.499,14.517-14.517V73.896c0-8.716,7.092-15.809,15.809-15.809
		c8.716,0,15.809,7.092,15.809,15.809V183.22v3.308c0,8.018,6.499,14.517,14.517,14.517c8.018,0,14.517-6.499,14.517-14.517v-3.308
		V73.896V44.844c0-8.716,7.092-15.809,15.809-15.809c8.718,0,15.809,7.092,15.809,15.809V183.22c0,8.018,6.499,14.517,14.517,14.517
		h57.478c9.144,0,16.585,7.44,16.585,16.586v135.911c0,8.018,6.499,14.517,14.517,14.517c8.018,0,14.517-6.499,14.517-14.517
		V214.324C374.473,189.168,354.008,168.703,328.853,168.703z" />
		<path class="icrate-pointer-hold-vertical-outline" d="M374.09,86.925c-2.766,0-5.562-0.788-8.035-2.437c-6.672-4.447-8.478-13.459-4.033-20.131
		l30.736-46.135c2.692-4.04,7.227-6.469,12.081-6.469l0,0c4.856,0,9.39,2.427,12.081,6.469l30.736,46.135
		c4.445,6.672,2.639,15.686-4.033,20.131c-6.672,4.447-15.685,2.641-20.131-4.033l-18.655-28.001l-18.655,28.001
		C383.388,84.655,378.784,86.925,374.09,86.925z" />
		<path class="icrate-pointer-hold-vertical-outline" d="M404.841,190.225c-4.856,0-9.39-2.427-12.081-6.469l-30.736-46.133
		c-4.445-6.672-2.639-15.685,4.033-20.131c6.674-4.445,15.686-2.641,20.131,4.033l18.655,28l18.655-28
		c4.447-6.672,13.459-8.477,20.131-4.033c6.672,4.447,8.478,13.459,4.033,20.131l-30.736,46.133
		C414.231,187.798,409.697,190.225,404.841,190.225z" />
	</g>
</svg>