<?xml version="1.0" encoding="utf-8"?>
<!-- Generator: Adobe Illustrator 19.0.0, SVG Export Plug-In . SVG Version: 6.00 Build 0)  -->
<svg version="1.1" id="icrate-pointer-hold-horizontal" xmlns="http://www.w3.org/2000/svg"
	xmlns:xlink="http://www.w3.org/1999/xlink" x="0px" y="0px" viewBox="0 0 512 512"
	style="enable-background:new 0 0 512 512;" xml:space="preserve">
	<defs>
		<style>
			.icrate-pointer-hold-horizontal-outline {
				fill: #d3aa61ff;
			}

			.icrate-pointer-hold-horizontal-inner {
				fill: #f3d98fff;
			}
		</style>
	</defs>
	<g id="icrate-pointer-hold-horizontal-group">
	<rect x="103.041" y="413.962" class="icrate-pointer-hold-horizontal-inner" width="216.628" height="83.518" />
		<path class="icrate-pointer-hold-horizontal-outline" d="M319.667,512H103.042c-8.018,0-14.517-6.499-14.517-14.517v-83.517
		c0-8.018,6.499-14.517,14.517-14.517h216.625c8.018,0,14.517,6.499,14.517,14.517v83.517C334.184,505.501,327.685,512,319.667,512z
		 M117.559,482.965h187.59v-54.482h-187.59V482.965z" />
		<path class="icrate-pointer-hold-horizontal-outline" d="M92.713,364.755c-6.151,0-11.862-3.94-13.829-10.114L42.039,238.984
		c-7.513-23.546,5.525-48.83,29.068-56.359c23.569-7.524,48.851,5.519,56.371,29.071l14.426,44.89
		c2.452,7.633-1.746,15.811-9.38,18.263s-15.811-1.745-18.263-9.38l-14.433-44.917c-2.658-8.326-11.573-12.919-19.881-10.27
		c-8.297,2.654-12.894,11.573-10.243,19.881l36.848,115.662c2.433,7.639-1.786,15.805-9.426,18.24
		C95.658,364.533,94.172,364.755,92.713,364.755z" />
		<path class="icrate-pointer-hold-horizontal-outline" d="M306.864,168.703h-42.96V44.844C263.904,20.117,243.787,0,219.06,0
		c-20.488,0-37.799,13.816-43.135,32.618c-5.384-2.294-11.305-3.565-17.517-3.565c-24.727,0-44.844,20.117-44.844,44.844v80.674
		c0,8.018,6.499,14.517,14.517,14.517c8.018,0,14.517-6.499,14.517-14.517V73.896c0-8.716,7.092-15.809,15.809-15.809
		s15.809,7.092,15.809,15.809V183.22v3.308c0,8.018,6.499,14.517,14.517,14.517c8.018,0,14.517-6.499,14.517-14.517v-3.308V73.896
		V44.844c0-8.716,7.092-15.809,15.809-15.809s15.809,7.092,15.809,15.809V183.22c0,8.018,6.499,14.517,14.517,14.517h57.477
		c9.146,0,16.586,7.44,16.586,16.586v135.911c0,8.018,6.499,14.517,14.517,14.517s14.517-6.499,14.517-14.517V214.324
		C352.484,189.168,332.019,168.703,306.864,168.703z" />
		<path class="icrate-pointer-hold-horizontal-outline" d="M411.448,146.245c-4.692,0-9.298-2.271-12.096-6.47c-4.445-6.672-2.639-15.686,4.033-20.131
		l28-18.655l-28-18.655c-6.672-4.445-8.478-13.459-4.033-20.131c4.447-6.672,13.459-8.48,20.131-4.033l46.135,30.736
		c4.042,2.692,6.469,7.227,6.469,12.081c0,4.855-2.427,9.39-6.469,12.081l-46.135,30.74
		C417.01,145.456,414.214,146.245,411.448,146.245z" />
		<path class="icrate-pointer-hold-horizontal-outline" d="M354.254,146.245c-2.766,0-5.562-0.788-8.035-2.437l-46.133-30.736
		c-4.042-2.692-6.469-7.227-6.469-12.081c0-4.855,2.427-9.39,6.469-12.081l46.133-30.736c6.674-4.444,15.686-2.638,20.131,4.033
		c4.445,6.672,2.639,15.685-4.033,20.131l-28,18.655l28,18.655c6.672,4.447,8.478,13.459,4.033,20.131
		C363.553,143.973,358.946,146.245,354.254,146.245z" />
	</g>
</svg>