<?xml version="1.0" encoding="UTF-8"?>
<svg xmlns="http://www.w3.org/2000/svg" viewBox="0 0 458.5 458.5">
  <defs>
    <style>.cls-1{fill:#ef7d19;}.cls-2{fill:#757575;}</style>
  </defs>
  <title>02_icon_infographic</title>
  <g id="Ebene_2" data-name="Ebene 2">
    <g id="Ebene_1-2" data-name="Ebene 1">
      <path class="cls-1" d="M458.75,229.5A228.3,228.3,0,0,1,405.5,376.37c-3.36-.35-6.71-.58-9.95-.8a87.17,87.17,0,0,0-3.08-15.19,209.47,209.47,0,0,0,14.06-244.22,23.09,23.09,0,0,0,5.12-6.61A104.12,104.12,0,0,0,416.32,98l.55-.6A228.18,228.18,0,0,1,458.75,229.5Z" transform="translate(-0.25 -0.25)"></path>
      <path class="cls-1" d="M383.39,59.59a16.33,16.33,0,0,0-2,1.69c-4.12,4-6.08,9.3-10.86,12.16a208.63,208.63,0,0,0-140.7-54.33c-115.66,0-209.41,93.76-209.41,209.41s93.75,209.41,209.41,209.41a208.48,208.48,0,0,0,96.74-23.65c7.62,4.58,16.08,7.27,24.74,9.45a228.13,228.13,0,0,1-121.77,35C102.89,458.75.25,356.11.25,229.5S102.89.25,229.5.25A228.39,228.39,0,0,1,383.39,59.59Z" transform="translate(-0.25 -0.25)"></path>
      <path class="cls-2" d="M115.63,161.32c11.82,0,23.38-.14,34.94.07,4.75.09,8.23-1.17,11.58-4.86,7-7.74,14.71-14.89,22.11-22.27,10.81,6.55,14.24,26,7.06,42.45-7.69,17.53-27.69,25.82-41.82,22.84C128.61,195.15,114.23,179.06,115.63,161.32Z" transform="translate(-0.25 -0.25)"></path>
      <path class="cls-2" d="M94.55,102.33l16.21,18.16c-7.65,9.74-13.8,21.9-14.71,36.92H71.4C67.38,144.13,82.07,108.73,94.55,102.33Z" transform="translate(-0.25 -0.25)"></path>
      <path class="cls-2" d="M200.25,119.11,216,102.56c12.52,8.21,26.24,42,22.12,55.19H216.34C210.76,144.34,205.58,131.92,200.25,119.11Z" transform="translate(-0.25 -0.25)"></path>
      <path class="cls-2" d="M70.17,161.88H95.78c1.54,14.14,6.18,26.71,16,37.55L93,217.13C78.45,202.31,71.41,184,70.17,161.88Z" transform="translate(-0.25 -0.25)"></path>
      <path class="cls-2" d="M116.31,203.92c9.56,8.77,22.54,13.15,36.71,14.84V243.7c-22.11.77-39.74-8.26-56-22.08Z" transform="translate(-0.25 -0.25)"></path>
      <path class="cls-2" d="M214.29,161.78h25c-.36,21.83-8.3,39.84-22.72,56L199.27,198.3C207.8,188.93,212,175.93,214.29,161.78Z" transform="translate(-0.25 -0.25)"></path>
      <path class="cls-2" d="M115.26,116.13,97.36,99c9.35-13.72,38.65-25.63,55.41-22.4V101C138.33,102,125.68,107.14,115.26,116.13Z" transform="translate(-0.25 -0.25)"></path>
      <path class="cls-2" d="M195,202.71l16.84,18.59c-4.25,9.57-39.74,26-54.52,21.86V218.75C171,217.08,183.91,212.6,195,202.71Z" transform="translate(-0.25 -0.25)"></path>
      <path class="cls-2" d="M213.59,98.46l-18.54,18.25A63.2,63.2,0,0,0,157.4,101V75.9C179.24,75.06,196.76,84,213.59,98.46Z" transform="translate(-0.25 -0.25)"></path>
      <path class="cls-2" d="M153,120.83v36.48H116.1C111.51,143.9,133.07,117.56,153,120.83Z" transform="translate(-0.25 -0.25)"></path>
      <path class="cls-2" d="M179.7,129.29l-22.28,24.62V120.37C166.44,119.45,178,124.88,179.7,129.29Z" transform="translate(-0.25 -0.25)"></path>
      <path class="cls-2" d="M155.58,309.87c-.12-4.9-.75-9.27-.22-13.5.89-7.08,7.57-12.63,14.26-12.2,3.49.22,7,.35,10.84.54,1.49-1.83,3.12-4,5-6,2.52-2.75,5.14-5.41,7.82-8,2.35-2.27,5.64-1.86,7.78.62,1.07,1.22,2.53,2.1,3.7,3.24,2.83,2.75,5.61,5.54,8.37,8.36.58.59.95,1.36,1.6,1.31,4.15,0,8.3,0,12.45,0,3.46,0,6.06,1.81,8.51,4a15.21,15.21,0,0,0,4.14,2.76c3.34,1.43,4.53,5,2.43,7.95A15.76,15.76,0,0,0,239,309.4c6,4.22,12.07,8.35,12.07,16.93s-6,12.6-12.27,17c.21,1.18.46,2.55.72,3.91,1.34,7.08.58,14-5.57,18.61a5.9,5.9,0,0,1-4.17,5.78c-3,1-4.78-1.05-6.33-2.75l-8.87-1.14c-1.27,1.91-3.48,3.28-2.93,6.58.24,1.48-1,3.62-2.14,4.8-1.87,1.85-4.23,1.13-6.25-.13-11.43,3.95-17.31-3.27-22.8-11.3-9.87,1.39-20,3.55-24.56-9.21-2.39-.71-4.28-2.07-4.66-4.74s1.16-4.1,3.07-5.66c1.21-1,1.68-2.91,2.44-4.34C139.57,331.94,139.53,319.32,155.58,309.87Zm41.8-6.23c-6.95-2.09-11.95,1.1-16.18,6.29a39.14,39.14,0,0,1-3.79,3.83,8.21,8.21,0,0,0-2.82,6.8c.18,3.8.17,7.61,0,11.41a8.87,8.87,0,0,0,2.86,7.1c2.29,2.26,4.57,4.53,6.8,6.85,2.49,2.58,5.28,4.09,9.07,3.62a28.7,28.7,0,0,1,7.69,0c4.36.66,7.46-1.25,10.29-4.12.92-.94,1.86-1.88,2.86-2.74,4.75-4,7.49-8.85,6.51-15.35a30.62,30.62,0,0,1-.08-6.28,9.09,9.09,0,0,0-2.78-7.18c-1.24-1.3-2.63-2.46-3.77-3.83C209.72,304.78,204.56,301.69,197.38,303.64Zm40.4,36.45c6.15-2.56,10.63-8.44,10.59-13.75s-4.66-11.4-10.54-13.74q-3.44,7-6.85,13.9C233.24,331,235.47,335.47,237.78,340.09Zm-73.72-14-6.89-13.43c-7.15,3.17-10.94,9.85-10.79,14.13.17,5,5.71,11.54,10.88,13.1C159.49,335.39,161.72,330.87,164.06,326.1Zm19-40.44c4.95,2.62,9.16,4.89,13.41,7.07a2.46,2.46,0,0,0,1.92,0c4.34-2.19,8.64-4.47,13.26-6.88-2.52-4-5-7.74-9.73-9.22-3,3.93-6.8,4-10.54,0ZM158.17,347.5c3.77,2.81,5,6,1.76,9.84-.6.71-.31,2.85.33,3.82,1.53,2.31,3.66,4.31,6.62,4.43,3.93.16,7.87-.07,12.16-.14-1.94-5.72-3.6-10.62-5.19-15.33l-14.61-5Zm58.12-59.3L221,302.57l15.06,5.08,1.11-6.15c-5.13-3.08-5.48-4.39-3-10C232.72,286.85,222.92,285.15,216.29,288.2Zm-4.8,78.74c-4.54-2.4-8.76-4.67-13-6.83a2.72,2.72,0,0,0-2.15,0c-4.21,2.1-8.37,4.32-12.55,6.5,2.53,6.09,9.33,12.72,17.34,10.06,1.17-6.36,2.51-7.47,8.21-6.61Zm-32.71-78.61c-6.82-3-14.82-1.76-18.62,3.37-3,4-3.14,13.63-.69,15.7,1.44-2,2.51-4.54,4.43-5.76,2.26-1.41,5-.5,6.91,1.73l3.08-.45c.73-2.55,1.34-4.93,2.12-7.26S177.8,290.91,178.78,288.33Zm53.94,74.8c4.88-4.4,6.08-12.46,2.54-18.64-2.65,4.61-5.06,10.1-11.26,4.71l-2.73.71c-1.65,4.91-3.3,9.8-5.07,15l6.53.85C225.6,360.85,228.89,360,232.72,363.13Zm-67-34-6.15,13,13.58,4.7C172.89,339.72,171.26,333.84,165.68,329.11Zm56.24-23.33c-.27,7.49,2.38,12.92,7.38,17.91l6.21-13.09ZM218,351.08c-7.19-.51-12.9,1.5-17.66,7.09l12.94,6.24Zm-17.55-56.45c4.86,5.34,10.39,7.66,17.45,7-1.49-4.28-2.94-8.49-4.59-13.24Zm-5.86.08-12.82-6.23-4.64,13.11C184.19,302.42,189.54,299.68,194.57,294.71Zm0,63.41c-4.82-5.33-10.38-7.65-17.34-7,1.2,3.52,2.36,7,3.59,10.45a15.5,15.5,0,0,0,1.51,2.39ZM165.66,323.3c5.62-4.65,7.26-10.46,7.42-17.78a23.41,23.41,0,0,0-1.93,2.5c-1.89,3.49-4.35,4.26-8,2.62-.87-.39-2-.24-3.89-.42C161.68,315.1,163.63,319.13,165.66,323.3Zm69.9,19.08-6.42-13.18c-5.55,6.25-8.08,12.83-6.8,17.21.25-.13.63-.2.71-.39,2.35-5.89,3.84-6.46,9.31-3.68C233,342.64,233.86,342.38,235.56,342.38Zm-64.42-11.27.5-.27v-10l-3.86,5.54Zm11.06-26.34-.19-.45-5.5,1-1.06,5.27ZM223.71,322v8.83C227.76,327.39,227.78,325.86,223.71,322ZM175.9,341.61l-.64.23,1.51,5.76,5.32.66Zm43.83.38-6.36,6.38,5-.86C218.9,345.49,219.35,343.58,219.73,342Zm-6.58-37.69,6.64,7.2c-.54-2.37-1-4.26-1.42-6.22Zm-15.84-7.61-4.8,3.47h9.89Zm.08,59.4,5.11-3.63h-8.44a6.07,6.07,0,0,0-1.2.36Z" transform="translate(-0.25 -0.25)"></path>
      <path class="cls-2" d="M183.8,316.2c9.66,4.58,18.89,4.45,28.51.05,0,3,.54,6.11-.22,8.89-.41,1.54-2.82,3.05-4.63,3.61a32.42,32.42,0,0,1-18.79.06c-4-1.17-4.87-2.35-4.87-6.46Z" transform="translate(-0.25 -0.25)"></path>
      <path class="cls-2" d="M183.8,328.22c9.7,4.56,18.92,4.47,28.56,0,0,3,.39,5.93-.11,8.74s-3.22,3.5-5.64,4.08a36.55,36.55,0,0,1-16.9.1c-4.36-1-5.91-2.62-5.91-7.12Z" transform="translate(-0.25 -0.25)"></path>
      <path class="cls-2" d="M213.35,313c-2.2,1.48-3.68,3-5.47,3.59a32.12,32.12,0,0,1-19.59.07,11.35,11.35,0,0,1-2.54-1.26c-2.68-1.67-2.64-3.89.31-5.33a26,26,0,0,1,15.25-2.25,43.17,43.17,0,0,1,8.2,2.05C210.7,310.26,211.61,311.51,213.35,313Z" transform="translate(-0.25 -0.25)"></path>
      <path class="cls-2" d="M395.91,208.66c.9.09,1.55.38,3.59.69a11.76,11.76,0,0,1,1.4.18c2.5,1.3,5.33,2.28,7.35,4.12a19,19,0,0,1,5,7.21,17,17,0,0,1-2.42,16.72c-3.84,5-9,7.71-15.45,7.28a17.3,17.3,0,0,1-14.93-9.69,12,12,0,0,0-8.83-6.4c-4.31-.87-8.58-2-12.91-2.73a123.73,123.73,0,0,0-13.52-1.86c-8-.51-16-.88-24-.87-8.28,0-16.58.34-24.84.93-2.5.18-4.95,1.59-7.35,2.62-2.78,1.19-4.91-.15-6.79-1.76a6.6,6.6,0,0,1-2.3-6.92,7.5,7.5,0,0,1,6.61-5.79,6.81,6.81,0,0,1,6.49,2.88c2.56,3.34,6.45,4.26,10.2,5,13.08,2.55,26.3,2,39.51,1.36,5.65-.29,11.34-.55,16.92-1.39,7.35-1.11,14.8-2,21.75-4.84,1.63-.67,2.95-2,4.51-2.91a40.33,40.33,0,0,1,6.31-3A8.69,8.69,0,0,1,395.91,208.66Z" transform="translate(-0.25 -0.25)"></path>
      <path class="cls-2" d="M375.46,363.76a16.92,16.92,0,0,1,2.53,1.76,16.09,16.09,0,0,1,5.39,7.2,15.21,15.21,0,0,1,.51,7.61c-.95,5.44-4.12,9.69-9.44,11.47-5.51,1.85-11.07,1.43-15.5-2.84a21.73,21.73,0,0,0-9.34-5.12,156.14,156.14,0,0,0-22.3-4.38,249.4,249.4,0,0,0-38-2.39c-4.09.06-8.06.27-11.82,2.38-3.08,1.72-7.45,0-9.13-3.14-2.11-3.94-1-7.06,2.05-9.57a6.63,6.63,0,0,1,9.66,1c2.92,3.92,7,5.2,11.33,6.17,13.27,3,26.76,3.07,40.24,2.73a70.16,70.16,0,0,0,18.2-2.52,11.93,11.93,0,0,0,6.41-4.27,26.4,26.4,0,0,1,5.8-5.46c1.85-1.3,1.19-1.46,1.63-1.77C367.87,359.58,375.13,363.57,375.46,363.76Z" transform="translate(-0.25 -0.25)"></path>
      <path class="cls-2" d="M331.36,194.65c13.39-.61,26.12-3.41,38.07-9.29a22.15,22.15,0,0,0,6.69-5.39c3.17-3.69,6.8-5.74,11.76-5.91,6.47-.22,10.86,2.83,13.86,8.11,4.64,8.19-.59,18.12-7.79,20.81-6.11,2.27-11.24,1-16.21-3a19,19,0,0,0-7-3.32c-9.65-2.46-19.54-1.76-29.29-1.07-7.88.56-15.7,2.16-23.47,3.69a22.51,22.51,0,0,0-10,4.35c-4.19,3.34-11.75,2.1-14.76-2.1-3.81-5.29-2.82-11.64,2.06-15.46,4-3.17,11.72-2.52,15,1.84a13.45,13.45,0,0,0,8.42,4.92C322.87,193.69,327.14,194.07,331.36,194.65Z" transform="translate(-0.25 -0.25)"></path>
      <path class="cls-2" d="M299.47,84.29c3.61.53,6.94,1.13,10.29,1.48,4.53.47,9.08.86,13.62,1.08,5.32.26,10.66.44,16,.42a190.68,190.68,0,0,0,19.29-.54c7.23-.75,14.61-1.28,21.34-4.56a9.87,9.87,0,0,0,1.74-1.11,15,15,0,0,1,23.32,6.16c2.34,5.67,1.52,10.86-2.47,15.44s-8.84,6.29-14.72,5a12,12,0,0,1-8-5.13c-3-4.71-7.62-6.72-12.56-8.17a96.37,96.37,0,0,0-24.83-4.26c-3.72-.1-7.47-.9-11.15-.62-6.1.46-12.31.72-18,3.29a11,11,0,0,0-5.5,5.11,9.18,9.18,0,0,1-10.35,4.66,9.57,9.57,0,0,1-7-8.16c-.25-4.5,2.26-8.5,6.19-9.73A15.15,15.15,0,0,1,299.47,84.29Z" transform="translate(-0.25 -0.25)"></path>
      <path class="cls-2" d="M329.55,399.53l1.89-.73c.73.5,1.17,1.06,1.66,1.11,5,.47,10,1,15,1.26,5.18.28,10.38.51,15.56.39a78,78,0,0,0,10.85-1.3,5.56,5.56,0,0,0,3.18-1.77,18.15,18.15,0,0,1,13.57-6.68c5.4-.32,10.09,2,13.77,6.05a17.78,17.78,0,0,1-7.38,28.94c-8.08,2.82-17,0-21.32-7.84-2.5-4.53-6.82-6.2-11.13-7.69-6.7-2.34-13.55-4.29-20.42-6.11-4.52-1.2-9.19-1.85-13.78-2.83a10.33,10.33,0,0,1-2.31-1.14C329,400.63,329.28,400.08,329.55,399.53Z" transform="translate(-0.25 -0.25)"></path>
      <path class="cls-2" d="M344,162.15c4.6,0,7.09-1.68,9.15-6.62,1.91-4.58,7.46-8.54,12.46-8.25a13.6,13.6,0,0,1,12.94,10.45,13.12,13.12,0,0,1-6.72,14.9c-5,2.49-9.8,2.28-14.44-1.09s-9.36-5.57-15.15-5.29c-3,.15-5,1.39-6,4.2-1.4,3.79-3.23,7.3-7.17,9-6.69,2.89-14.8.22-17.49-7.3A12.62,12.62,0,0,1,319.8,156a11.87,11.87,0,0,1,10.69,1.6C334.35,160.26,338.45,162.29,344,162.15Z" transform="translate(-0.25 -0.25)"></path>
      <path class="cls-2" d="M342,281.85c6.11-.58,12.26-.92,18.33-1.8,6.58-.95,11.94,1,15,6.47a13.39,13.39,0,0,1-18.46,18.09,14.49,14.49,0,0,1-5.94-7.24,16,16,0,0,0-6.82-7.29,59.79,59.79,0,0,0-21.76-7.66,108.14,108.14,0,0,0-15.2-1.63c-3.58-.08-7.25.1-10.7,1.9-4.22,2.19-9.92,0-11.95-4a9.52,9.52,0,0,1,4.1-12.81,9.41,9.41,0,0,1,11.4,2.8c3.48,5.06,8.6,7.49,14.14,9.15A103.42,103.42,0,0,0,342,281.85Z" transform="translate(-0.25 -0.25)"></path>
      <path class="cls-2" d="M307.57,112.31a10.93,10.93,0,0,1,18.33-7.92c1.43,1.31,2.72,2.78,4.25,3.94,4.69,3.57,10.09,3.35,15.5,2.46s10.53-3.25,15.48-5.74c6.1-3.07,11.55-2,15.85,2.65a11.57,11.57,0,0,1,2.68,12,12.54,12.54,0,0,1-8.7,8.45c-5.34,1.56-9.56-.34-13.25-4a4.32,4.32,0,0,1-1.09-1.71c-1.46-4.84-5.07-7.21-9.71-7.92-5.45-.83-10.93-.55-16,2a25.1,25.1,0,0,0-5,3.62c-5.69,5-13.63,3.72-17.11-3.06A22.76,22.76,0,0,1,307.57,112.31Z" transform="translate(-0.25 -0.25)"></path>
      <path class="cls-2" d="M350.55,315.21c.38,5.94-4.13,10.56-8.74,12.18a12.93,12.93,0,0,1-14.19-4.78c-1.16-1.78-1.57-4.06-2.23-6.14-.36-1.17-.49-2.41-.79-3.6-1.09-4.23-4.49-4.77-8.27-3.44a27.09,27.09,0,0,0-4.91,2.64,9.85,9.85,0,0,1-11.34-.15,10.55,10.55,0,0,1-4.81-10.73c.59-4.93,3.68-7.72,8.05-9,3.85-1.13,7.41.17,10.19,3.09,1.57,1.65,2.94,3.48,4.39,5.25,1.8,2.2,4,4.27,6.8,4.36a24.14,24.14,0,0,0,8.3-1.41c7.17-2.42,14.08.46,16.87,7.46A19.23,19.23,0,0,1,350.55,315.21Z" transform="translate(-0.25 -0.25)"></path>
      <path class="cls-2" d="M337.1,253.46c7.92.4,13.73.74,17.21.95,8.48.52,11.49-.17,16.16-.55a17.15,17.15,0,0,0,6.61-2.15,15.27,15.27,0,0,1,21.24,6.48c3,6,1.9,12.89-3.53,18A14.67,14.67,0,0,1,377.32,278a13,13,0,0,1-6.13-6.52,14.6,14.6,0,0,0-8.82-8.53,131.59,131.59,0,0,0-16.48-5.39c-3.18-.75-5.94-1.31-8.12-1.71Z" transform="translate(-0.25 -0.25)"></path>
      <path class="cls-2" d="M291.64,346.28a8.34,8.34,0,0,1,7.55,4.27,9.18,9.18,0,0,0,6.4,4.53,35,35,0,0,0,26.28-5.39,13.68,13.68,0,0,0,3.43-3.56c3.46-4.84,8.53-7,13.83-5.81s9,5.59,9.81,11.35c.91,6.35-4.89,13.11-11.27,13.45-4.86.26-8.7-1.18-11.84-5a7.4,7.4,0,0,0-4.62-2.44,95.49,95.49,0,0,0-14.64-.38,50.08,50.08,0,0,0-16.66,3.9c-1.69.73-3.16,2-4.85,2.72a8.83,8.83,0,0,1-10.26-2c-3.15-3.09-3.29-6.63-1.73-10.48C284.34,348.24,287.65,346.28,291.64,346.28Z" transform="translate(-0.25 -0.25)"></path>
      <path class="cls-2" d="M340,150.56c-7.9.4-12.75-5.83-12.89-12.46-.15-6.85,5.82-12.25,12.75-12.67,6-.35,12.85,6.89,12.75,12.52C352.51,143.83,346.88,151.39,340,150.56Z" transform="translate(-0.25 -0.25)"></path>
      <path class="cls-2" d="M309.26,57.44s-1.91,0-4.88,0c-12.38,0-18.09,1.62-22.76,3.24a12.39,12.39,0,0,0-4,2.86,6,6,0,0,1-7.44.87c-2.1-1.27-3-4.36-2.05-7.25a5.3,5.3,0,0,1,5.74-3.47,5.73,5.73,0,0,1,2.14.69c1.81,1,4,1.2,8.2,1.81C291.7,57.23,309.26,57.51,309.26,57.44Z" transform="translate(-0.25 -0.25)"></path>
      <path class="cls-2" d="M303.38,334.14c0-5.59,5.47-11.33,10.87-11,6.34.42,10.82,4.3,11,11.16.18,5.59-5.41,10.9-11,10.72A11.14,11.14,0,0,1,303.38,334.14Z" transform="translate(-0.25 -0.25)"></path>
      <path class="cls-2" d="M339.11,255.26c-.45.22-.94.69-1.34.62a183.92,183.92,0,0,0-31-3.12c-4.9,0-9.81,0-14.71.07a13.54,13.54,0,0,0-3.6.84c-3.79,1.15-7.24,0-9.09-3a7.07,7.07,0,0,1,1.33-9.4,7.24,7.24,0,0,1,9.86.09c4.1,4,9.26,5.47,14.47,6.68,6.91,1.61,13.92,2.79,20.92,4,4.07.69,8.19,1,12.49,1.57.14.35.44,1,.73,1.72Z" transform="translate(-0.25 -0.25)"></path>
      <path class="cls-2" d="M332.27,74.43c-4.69,0-9.41-.3-14.07.07-9.1.73-18.15,1.91-26.51,6-1.84.9-3.57,2.05-5.44,2.89-2.69,1.21-4.87-.21-6.75-1.88a6.46,6.46,0,0,1-2.08-7,7.2,7.2,0,0,1,10.79-4.7c5,2.6,10.32,2.48,15.77,2.33,6-.16,12,.33,18,.75,3.49.25,6.95.93,10.43,1.42Z" transform="translate(-0.25 -0.25)"></path>
      <path class="cls-2" d="M329.55,399.53c-.27.55-.55,1.1-.82,1.66-2.51,1-4.85-.46-7.29-.54a31.59,31.59,0,0,1-3.79-.72c-7.56-1.21-15.09-2.7-22.69-3.51-8.85-.94-17.76-1.32-26.65-1.85-1.63-.1-3.3.41-4.95.38a5.5,5.5,0,0,1-5.29-5.57,5.74,5.74,0,0,1,5.39-5.72c2.54-.18,4,1,5.84,2.74a16.87,16.87,0,0,0,7,3.56c6.12,1.64,12.33,3,18.56,4.19,7.57,1.43,15.21,2.56,22.82,3.77,2,.33,4.11.35,6.11.75a10.45,10.45,0,0,1,2.75,1.48v-1Z" transform="translate(-0.25 -0.25)"></path>
      <path class="cls-2" d="M280.84,411.29c-3.32-.53-6.62-1.27-10-1.52-4.23-.31-8.53-1-12.69.75-1.74.75-3.86-.23-5-2a3.94,3.94,0,0,1,.59-5.44,3.89,3.89,0,0,1,5.08-.9c1.34.82,2.41,2.25,3.84,2.75,5.05,1.81,10.21,3.35,15.33,5,1,.3,2,.48,2.95.72Z" transform="translate(-0.25 -0.25)"></path>
      <path class="cls-2" d="M267.88,39.44c2.36,0,4.6,2,4.64,4.09a4.8,4.8,0,0,1-4.63,4.68,4.45,4.45,0,0,1-4.46-4.46A4.08,4.08,0,0,1,267.88,39.44Z" transform="translate(-0.25 -0.25)"></path>
      <path class="cls-2" d="M253.51,415.81a4,4,0,0,1,4,3.5,4.1,4.1,0,0,1-4,4,3.82,3.82,0,0,1-3.82-3.82A3.49,3.49,0,0,1,253.51,415.81Z" transform="translate(-0.25 -0.25)"></path>
    </g>
  </g>
</svg>
