<?xml version="1.0" encoding="UTF-8"?>
<svg xmlns="http://www.w3.org/2000/svg" viewBox="0 0 458.5 458.5">
  <defs>
    <style>.cls-1{fill:#ef7d19;}.cls-2{fill:#757575;}</style>
  </defs>
  <title>02_icon_story</title>
  <g id="Ebene_2" data-name="Ebene 2">
    <g id="Ebene_1-2" data-name="Ebene 1">
      <path class="cls-1" d="M385.18,368.88a144.09,144.09,0,0,0,24.14,2.8,229.25,229.25,0,0,1-361.66-2.56c8-1.2,16-2.14,24-3.37a209.39,209.39,0,0,0,313.57,3.13Z" transform="translate(-0.25 -0.25)"></path>
      <path class="cls-1" d="M425.14,349.05c-3.87-6.62-7.76-13.23-11.74-19.78a208.39,208.39,0,0,0,25.79-100.75c0-115.65-93.75-209.41-209.41-209.41a209.29,209.29,0,0,0-60,8.73c-2.72-1.17-5.5-2.19-8.22-3.14-5.65-2-11.86-4-18-4.74a30.22,30.22,0,0,1-2.85-1.85A228.59,228.59,0,0,1,229.5.25C356.11.25,458.75,102.89,458.75,229.5A228.16,228.16,0,0,1,425.14,349.05Z" transform="translate(-0.25 -0.25)"></path>
      <path class="cls-1" d="M131.15,41.33a19.28,19.28,0,0,0,1.73,1.51q-4.26,2.23-8.41,4.65a46,46,0,0,0-12.67,2c-6.5,2.16-13.69,7.53-12.41,15.12a210.41,210.41,0,0,0-39.13,40.9c0-.13-.08-.26-.13-.38-2.06-5.51-7.46-8.73-12.87-5.24-12.68,8.17-9.36,25.25-6.69,38.77A209.78,209.78,0,0,0,43.89,325c-4.79,5.75-9.48,11.57-13.78,17.68A229.32,229.32,0,0,1,53.68,82.39c.74.06,1.49.09,2.23.09h.53C78.63,82.22,98.59,59,103.68,37.83q5.83-3.82,11.91-7.31a5.76,5.76,0,0,0,.64.55,59.61,59.61,0,0,0,8.63,5.09,21.39,21.39,0,0,0,4.86,4.3C130.19,40.77,130.67,41.05,131.15,41.33Z" transform="translate(-0.25 -0.25)"></path>
      <path class="cls-2" d="M336.4,353.86c-21.43,0-40.78-.91-60,.29-14.32.9-24.29-2.69-32.91-15-12.17-17.32-26.53-33.1-40.25-49.9L286.13,197C303.06,249.83,319.49,301.1,336.4,353.86Z" transform="translate(-0.25 -0.25)"></path>
      <path class="cls-2" d="M180.28,353.47H38c35.5-39.59,69.55-77.56,104.83-116.88C155.54,276.35,167.71,314.28,180.28,353.47Z" transform="translate(-0.25 -0.25)"></path>
      <path class="cls-2" d="M305.37,215.8,416.79,352.64c-3.67.61-5.52,1.18-7.37,1.18-18.18.07-36.37-.12-54.54.14-4.83.08-7.7-1-9.25-6q-17.43-55-35.14-109.95-3.37-10.53-6.7-21.1Z" transform="translate(-0.25 -0.25)"></path>
      <path class="cls-2" d="M165.67,115.19c-.13,17.63-13.93,32.42-31.78,31.25-18.63-1.22-31.59-11.7-32.21-32.13C101.17,97.08,116.35,83,133.88,83,152.26,82.94,165.81,96.69,165.67,115.19Z" transform="translate(-0.25 -0.25)"></path>
      <path class="cls-2" d="M162.09,255.44l80,98.36c-17.13,0-31.88.21-46.61-.25-2-.06-4.77-3.23-5.56-5.52-6.5-19-12.66-38.11-18.82-57.22-3.69-11.43-7.19-22.94-10.77-34.41Z" transform="translate(-0.25 -0.25)"></path>
      <path class="cls-2" d="M220.75,117.14c-.37,3.69-.29,9.46-1.75,14.82-.8,2.93-4.22,5.14-6.45,7.68-1.35-2.68-4.05-5.48-3.84-8,1.39-16.34,2.47-32.56-5.39-47.77-2.68-5.18-6.27-9.92-8.65-15.21-1.09-2.44-.27-5.74-.32-8.65,3,.83,7.17.68,8.78,2.63C215.62,77.82,220.72,95.71,220.75,117.14Z" transform="translate(-0.25 -0.25)"></path>
      <path class="cls-2" d="M193.54,114.91c-.86,21.46-10.35,37.7-27.71,49.32-2.46,1.65-6.82.46-10.3.59,1.4-3.12,1.93-7.51,4.33-9.13,15-10.11,27.28-30.46,20.26-55.18-.68-2.4,1.69-5.67,2.65-8.53,2.43,1.59,6.28,2.7,7,4.87C191.76,102.62,192.38,108.86,193.54,114.91Z" transform="translate(-0.25 -0.25)"></path>
      <path class="cls-2" d="M73.94,114.05c.9-4.32,1.22-8.89,2.93-12.86,1-2.29,4.23-3.61,6.46-5.37,1.24,2.56,4,5.45,3.48,7.62-5.2,23.06,4.73,39.44,22,53.14,2.47,2,3.33,5.95,4.94,9-3.83-.18-8.45,1-11.35-.76C85.74,154.87,74.52,133.79,73.94,114.05Z" transform="translate(-0.25 -0.25)"></path>
      <path class="cls-2" d="M180.63,79.35c-1.74,2.18-2.83,4.56-4.64,5.43-1.24.59-3.69-.61-5.26-1.56C163,78.6,156,71.88,147.65,69.59,139,67.2,129.25,69,120,69.07c-1.45,0-3,1.05-4.33.78a81.33,81.33,0,0,1-8.47-2.66c1.89-2.61,3.28-6.79,5.76-7.59,22.43-7.26,43.14-3.92,61.25,11.77C176.55,73.41,178.19,76.28,180.63,79.35Z" transform="translate(-0.25 -0.25)"></path>
      <path class="cls-2" d="M130.32,201.78c-24.38-2.2-42.67-10.39-57.64-25.36-2.09-2.1-1.84-6.54-2.68-9.9,3.33.68,7.68.25,9.82,2.22,13.75,12.68,29.6,20.24,48.23,22,4.4.42,11.08-1.05,10.28,6C138,199.21,131.67,201,130.32,201.78Z" transform="translate(-0.25 -0.25)"></path>
      <path class="cls-2" d="M138,24.75c14.8,5.69,28.85,10.74,42.51,16.69,2.24,1,4.56,6.67,3.66,8.91-2.09,5.23-5.67,1.66-9.34.29-12.35-4.61-25.07-8.25-37.53-12.55-3.14-1.09-5.89-3.3-8.82-5Z" transform="translate(-0.25 -0.25)"></path>
      <path class="cls-2" d="M177.67,188.08c-.72-.56-3.18-1.52-3.43-2.88-.36-2,.13-5.29,1.51-6.31,11.66-8.52,20.58-19.28,27.84-31.65.75-1.26,4.62-2.06,5.94-1.26,1.57,1,2.88,4,2.7,5.91-.75,8.28-23.64,34-31.48,35.86C180.17,187.89,179.57,187.88,177.67,188.08Z" transform="translate(-0.25 -0.25)"></path>
      <path class="cls-2" d="M47.45,121.56c0-1.78-.54-3.81.13-5.3,1-2.33,2.9-4.3,4.42-6.43,2,2.11,5.28,3.92,5.93,6.4A210,210,0,0,1,63.21,143c.34,2.69-2.11,5.74-3.28,8.63-2.36-2-6-3.47-6.86-6-2.83-7.7-4.64-15.78-6.84-23.71Z" transform="translate(-0.25 -0.25)"></path>
      <path class="cls-2" d="M95.53,44.71c-3.19,4.6-4.25,6.7-5.83,8.3C83.61,59.23,77.57,65.53,71,71.27c-2.2,1.94-5.79,2.32-8.75,3.4-.1-3-1.51-7.1-.07-8.78A211.28,211.28,0,0,1,83.61,44C85.36,42.5,90,44.28,95.53,44.71Z" transform="translate(-0.25 -0.25)"></path>
      <path class="cls-2" d="M142.81,162.57c3.67,10.12-1.89,10.39-6.56,9.92-2.75-.27-5.28-2.85-7.9-4.39Z" transform="translate(-0.25 -0.25)"></path>
    </g>
  </g>
</svg>
