<?xml version="1.0" encoding="UTF-8"?>
<svg xmlns="http://www.w3.org/2000/svg" viewBox="0 0 462.2 458.5">
  <defs>
    <style>.cls-1{fill:#ef7d19;}.cls-2{fill:#757575;}</style>
  </defs>
  <title>02_icon_video</title>
  <g id="Ebene_2" data-name="Ebene 2">
    <g id="Ebene_1-2" data-name="Ebene 1">
      <path class="cls-1" d="M402.07,380.37q-4.35,5-9,9.69a302.38,302.38,0,0,1-36.68,5.22,207.56,207.56,0,0,0,16.65-14.09C382.81,381.44,392.48,381.86,402.07,380.37Z" transform="translate(-0.25 -0.25)"></path>
      <path class="cls-1" d="M458.75,229.5a228.43,228.43,0,0,1-16,84.37Q432.34,313,422,311.69a208.56,208.56,0,0,0,17.19-83.17c0-115.65-93.75-209.41-209.41-209.41S20.37,112.87,20.37,228.52s93.76,209.41,209.41,209.41a210.05,210.05,0,0,0,43.88-4.62c3.66,6.19,6.91,12.64,10.45,18.87a229.63,229.63,0,0,1-54.61,6.57C102.88,458.75.25,356.11.25,229.5S102.88.25,229.5.25,458.75,102.89,458.75,229.5Z" transform="translate(-0.25 -0.25)"></path>
      <path class="cls-2" d="M403.72,330.47c9.36,1.22,17.33,1.45,24.86,3.39,33.74,8.73,43.56,36.38,23.62,66C432.61,429,404,440.46,370.06,441.44c-22.57.65-45.15,1.67-67.72,1.67-3.47,0-8.5-3.82-10.08-7.16-2.84-6-3.63-13-5.58-20.81-17.82-.58-35.55-.33-53.12-1.95-18.53-1.7-36.91-5.06-55.33-7.92-8.64-1.34-12.17-6.53-8.35-14.68,3.38-7.19,3.38-18.79,17.19-14.63a69.11,69.11,0,0,0,23,2.47c-48-26.71-83.47-63.27-91.49-118.48-5.63-38.74,2.47-76.69,24.26-110.29,41.69-64.3,130.11-85.25,199-49.36C425.47,143.84,451.25,236.54,403.72,330.47Zm-9.26-23.41c2.78-21.29,5.76-43.63,8.62-66C415.25,146.17,324.7,83.06,255.91,93,221.14,98,188,108.74,164,140.8c-10.25,13.7-20.69,26.37-25.76,42.38-26.41,83.33,7.35,162.45,92.62,189.34C308.51,397,392.48,370,414.44,270.92c6.68-30.11,4.53-55.74-5.47-73.45C417.42,237.72,409.4,273.66,394.46,307.06ZM333,409.39c51.12,2.32,92.27-14.86,101.21-41.85-40.32-9.87-54.31-5.87-105.36,19.34C330.23,394.26,331.54,401.39,333,409.39Zm27.4,20.35c-3.16-4.34-5.59-9.46-6.91-9.19-7.49,1.55-18-2.57-24,10.81ZM182.17,385.05l-4,11.17c17.44,6,17.66,5.91,19.73-6.71Zm111.22,12.49,1.95,5.83,27-5.95-1-4.36C311.62,392.68,300.68,386.65,293.39,397.54Zm84.87-46.15,3.06,5.12,19.86-1.88c-.24-5-.45-9.32-.66-13.67l-4.83-3.54Zm25.56,57.67-16.6,6c3,18.37,12.23,6.66,19.69,6.25C405.83,417.07,405,413.82,403.82,409.06Zm-40.21,10.35-1.18,6.22c5.22.68,10.61,2.41,15.57,1.57,2.16-.37,3.42-6,6.49-12ZM243.24,392.57c.66,15.45,11.29,8.19,17.25,9.76,1.47.39,3.94-3,5.94-4.68-4.39-1.62-8.7-3.54-13.21-4.74C250.58,392.21,247.62,392.67,243.24,392.57Z" transform="translate(-0.25 -0.25)"></path>
      <path class="cls-2" d="M373.66,176.3c17.07,19.8,21.07,53,10.26,86.09-21.28-2.78-43.09-5.33-64.74-8.85-2.79-.45-5.93-5.6-6.89-9.13-1.65-6.07-2.75-12.69-2.13-18.88.49-5,2.51-11.74,6.19-14.17C334.78,199.19,354,188.17,373.66,176.3Zm2.64,17.12-8.42-1.52c-1.5,3.78-4.41,7.63-4.26,11.35.65,15.86,2.2,31.69,3.52,48.79l13.85-.26C379.35,231.44,377.83,212.43,376.3,193.42Zm-44.54,42c-1.77-7.55-3.25-13.89-4.74-20.22l-6.13.2c-.17,8-.73,16-.3,24,.15,2.67,2.38,6.88,4.41,7.38,2.65.66,7.6-.77,8.8-2.87,3-5.19,4.34-11.27,6.36-17l-4.05-1.29C334.71,228.76,333.3,231.93,331.76,235.43Zm16.92-30.2-6,.86,6.15,45.26,5.24-.67C357.07,235,357.09,219.63,348.68,205.23Z" transform="translate(-0.25 -0.25)"></path>
      <path class="cls-2" d="M306.8,198l-54.9-11.11c-3.83-13.51-8.61-29.94-13.1-46.45-1.91-7.06-.49-12.28,7.95-14.35,28.52-7,56.45-7.13,83.86,5,11.65,5.14,14.83,11.85,7,22.82C326.7,169.06,316.22,184.49,306.8,198Zm1.76-20.44L317.8,167c-22.33-8.48-42.92-11.91-64.46-5.44,3.53,3,7.49,3.13,11.21,4.12,14.82,3.93,29.56,8.13,44.27,12.18l-48.51-3.43c-.08,1.3-.15,2.6-.23,3.91l42.56,9.58ZM318.17,153l15.54-4.13-1.14-5.52c-27.53-15.62-57.05-15.81-88-8.68a23.1,23.1,0,0,0,12.9,7.5c20.32,4,40.72,7.54,61.16,11.32-14-2.56-27.83-6-41.91-7.38-8.87-.86-18,1.39-27.08,2.24.16,1.34.31,2.68.47,4l72.59,9.5Z" transform="translate(-0.25 -0.25)"></path>
      <path class="cls-2" d="M228.55,343.55c-30.69-12.2-49.9-31.63-60.34-59.1-1.41-3.68,2.42-12.37,6.21-14.49,14.47-8.09,29.91-14.43,44-21l35.37,40.35Zm-38-56.51-11.41-13-3.71,3.31c6.92,24.35,23.33,41.21,44.56,54.4,6.65-6.42,6.43-10.13-1-15.39-7.65-5.4-13.34-13.59-19.88-20.56,7.66,5.95,15.12,12.2,23.14,17.62,1.9,1.29,5.67-.21,8.58-.43-.94-2.36-1.32-5.2-2.89-7-9.61-11-19.21-22-29.46-32.32-2.52-2.54-7.44-2.7-13.32-4.63C187.76,277.86,189.15,282.45,190.53,287Zm46.36,10.16,6.55-5.6-28.8-32.54-4.25,3.67Z" transform="translate(-0.25 -0.25)"></path>
      <path class="cls-2" d="M371.9,300.92c-18.13,34-68.59,59-105,52.45.25-17.81.08-35.9,1.1-53.93.21-3.77,4.19-8.13,7.57-10.73,5-3.84,12.28-5.21,16.41-9.65,12.09-13,23.4-9.48,36.35-1.53C342.07,285.94,356.69,292.84,371.9,300.92ZM320,286.26c-1.25-10.78-6.05-13.66-15.57-7.37-7.35,4.84-15.2,8.93-22.38,14-2.74,1.94-4.22,5.66-6.28,8.58l9.16,6.46c-7.29,3.61-14.15,7.4-4.88,19.49l58.18-31.74c-.38-1.8-.77-3.59-1.15-5.38Zm-44.79,57.16,4.48,4.4c31.13-5.26,58.89-17,79.54-43.74-5.09-2.18-10.52-3.93-14.26-2.15-20.84,9.93-41.4,20.48-61.73,31.42C279.75,335.22,277.83,340,275.19,343.42Z" transform="translate(-0.25 -0.25)"></path>
      <path class="cls-2" d="M221,233.75c-17.56-.32-34.7-.12-51.74-1.38-3.29-.24-9.14-6.57-8.76-9.43,3-23.07,9.47-45.07,24.88-63.48,6.08-7.27,10.92-8.13,17.55-.17,7.83,9.41,16.76,17.94,25.54,26.52,6.64,6.5,9.33,12.54,3.62,21.63C227.43,214.78,225.12,223.58,221,233.75Zm-24.3-42.07c-2.1,10.86-4.21,21.72-6.93,35.78,6.46-2.21,12.21-2.48,13.28-4.85,4.05-9,6.23-18.77,9.78-28,3.91-10.17-1.54-14.05-9.89-16.52L195,164.87l-5-.77c-8.35,19.43-16.69,38.86-26.12,60.8l20.41.47C188.79,213.12,192.73,202.4,196.66,191.68Z" transform="translate(-0.25 -0.25)"></path>
      <path class="cls-2" d="M239.77,238.66c2.43-19.27,14.94-27.62,37.3-24.92,13.38,1.62,21.12,14.31,18.93,31.06-2,15.56-16.32,28.31-29.73,26.52C249.14,269,237.71,255,239.77,238.66Zm18.3-13.88c-10.28,7.74-15,17.35-9.65,26.19,3.67,6.1,13.85,8.29,21.12,12.23.65-1.2,1.3-2.41,2-3.61C252.9,252.51,250,245.87,258.07,224.78Z" transform="translate(-0.25 -0.25)"></path>
    </g>
  </g>
</svg>
